<?xml version="1.0" standalone="no"?>
<!DOCTYPE svg PUBLIC "-//W3C//DTD SVG 20010904//EN"
 "http://www.w3.org/TR/2001/REC-SVG-20010904/DTD/svg10.dtd">
<svg version="1.0" xmlns="http://www.w3.org/2000/svg"
 width="5400.000000pt" height="7200.000000pt" viewBox="0 0 5400.000000 7200.000000"
 preserveAspectRatio="xMidYMid meet">

<g transform="translate(0.000000,7200.000000) scale(0.100000,-0.100000)"
fill="#000000" stroke="none">
<path d="M28752 64165 c-678 -68 -1244 -126 -1257 -129 -15 -4 -267 -266 -662
-690 l-638 -684 -478 -404 -479 -403 -536 -261 -537 -260 -979 -168 -980 -168
-605 -264 -606 -263 -1224 -306 -1224 -306 -896 -417 -896 -418 -770 -528
c-423 -291 -780 -539 -793 -550 -19 -18 -71 -206 -302 -1092 l-279 -1069 -77
-760 -77 -760 162 -731 c88 -403 161 -742 161 -753 0 -37 28 -91 52 -100 21
-8 42 -67 179 -507 l157 -499 26 -805 26 -805 -84 -559 c-47 -307 -82 -566
-79 -575 3 -9 156 -217 340 -463 l334 -446 144 -315 c89 -195 281 -581 506
-1014 l363 -698 419 -615 c230 -338 426 -622 435 -632 10 -9 285 -131 612
-270 l595 -255 653 -142 653 -141 707 -27 c389 -14 711 -30 716 -34 14 -13 6
-17 -90 -50 -49 -17 -103 -38 -120 -48 -17 -11 -58 -26 -90 -36 -33 -9 -68
-22 -79 -29 -11 -7 -38 -16 -60 -20 -22 -4 -60 -16 -85 -27 -25 -11 -64 -24
-87 -29 -74 -17 -170 -78 -256 -163 -92 -92 -212 -197 -224 -197 -4 0 -28 -16
-53 -36 -25 -20 -74 -49 -110 -65 -36 -17 -85 -49 -110 -73 -25 -24 -70 -60
-100 -79 -30 -19 -85 -62 -122 -96 -57 -52 -152 -108 -665 -389 l-598 -329
-1050 -476 -1050 -477 -2695 -715 -2695 -715 -1820 -777 c-1001 -426 -1829
-785 -1841 -797 -12 -12 -199 -327 -416 -701 l-396 -680 -772 -2845 c-659
-2430 -1013 -3764 -2425 -9147 l-1654 -6302 -730 -4173 -729 -4173 -37 -705
-37 -705 115 -704 c95 -581 119 -707 134 -723 18 -17 298 -47 2833 -304 l2814
-285 3200 191 c2908 174 3219 194 3396 220 107 17 287 44 400 61 422 63 660
125 905 233 17 8 68 30 115 51 47 21 115 57 151 81 69 46 85 71 73 118 l-6 24
984 6 c541 3 2379 8 4086 11 l3103 5 23 -27 c20 -24 29 -26 87 -24 35 1 562
28 1170 61 960 52 1110 58 1135 46 25 -12 916 -6 5984 38 5793 50 6034 51
8872 48 l2918 -2 26 -43 c91 -147 283 -270 569 -365 221 -74 289 -91 536 -137
330 -60 421 -79 574 -120 72 -19 197 -46 279 -60 81 -14 152 -27 156 -30 13
-8 181 -41 354 -70 87 -14 204 -37 260 -50 55 -14 209 -43 341 -65 132 -22
312 -56 400 -76 88 -19 249 -53 357 -75 l198 -40 117 21 c213 37 399 96 529
166 71 38 116 65 254 152 90 57 287 156 380 192 19 7 81 44 138 82 156 105
266 169 439 258 87 45 212 114 278 154 66 40 172 104 235 141 63 38 149 94
190 125 80 60 226 160 234 160 10 0 214 125 351 215 77 50 169 118 203 150
110 102 354 435 414 565 40 87 121 303 138 365 7 28 26 95 42 150 56 188 68
230 98 350 16 66 46 179 65 250 55 201 94 376 110 495 3 19 9 67 15 105 5 39
17 121 26 184 8 63 28 155 44 205 41 128 68 246 80 353 6 51 25 152 44 225 19
73 39 169 44 213 6 44 16 109 22 145 6 36 64 703 130 1484 l118 1418 -887
4212 -886 4211 -1130 1750 -1130 1750 -1016 1370 -1016 1370 -1988 3270 -1987
3269 -566 726 c-386 495 -566 734 -568 753 -2 16 -7 34 -11 40 -36 61 -1031
1538 -1048 1555 -19 20 -98 40 -592 145 -367 79 -578 128 -590 138 -27 25 -95
57 -208 100 -210 79 -518 204 -575 234 -54 27 -187 82 -288 119 -41 14 -149
58 -240 98 -92 39 -228 94 -302 123 -74 29 -211 83 -305 120 -93 38 -215 86
-270 108 -55 22 -147 61 -205 88 -156 71 -345 145 -525 204 -88 28 -189 64
-225 79 -107 45 -312 147 -356 177 -22 15 -67 40 -98 55 -32 15 -72 42 -90 60
-56 57 -126 142 -126 152 0 15 -87 130 -142 188 -29 31 -70 61 -99 74 -30 12
-49 26 -46 33 2 7 178 419 391 915 l387 903 116 558 117 558 230 41 c133 24
236 48 244 56 8 7 15 25 15 38 2 22 110 83 1030 579 l1028 554 597 569 597
569 338 506 338 506 203 405 c112 223 316 657 454 965 l251 560 256 967 255
967 0 364 0 363 73 409 73 410 -32 495 c-18 272 -60 821 -93 1220 l-61 725
-284 710 -285 710 -330 645 -331 645 0 475 0 475 -231 510 -232 511 -631 919
-631 919 -800 233 c-440 128 -1104 317 -1475 420 l-675 186 -914 -62 -915 -61
-466 -175 c-257 -96 -470 -175 -473 -175 -3 0 -103 161 -221 358 -118 196
-223 365 -233 373 -17 15 -1736 742 -1778 752 -11 2 -575 -51 -1253 -118z
m1653 -768 c197 -73 473 -214 592 -303 17 -13 34 -24 37 -24 4 0 29 -16 56
-35 28 -20 74 -46 104 -59 29 -13 75 -39 103 -57 28 -19 65 -42 83 -52 l33
-18 -142 -105 c-138 -102 -163 -129 -153 -166 12 -47 19 -48 487 -48 l440 0
435 60 c411 57 1222 150 1304 150 34 0 38 -2 33 -22 -3 -13 -71 -375 -152
-806 l-146 -783 258 -775 258 -776 604 -460 603 -460 550 -330 549 -330 253
-506 c223 -448 274 -560 441 -967 104 -253 197 -470 208 -482 12 -13 32 -23
47 -23 37 0 304 106 325 130 11 12 67 229 160 619 l142 601 -41 228 c-37 202
-40 230 -28 255 13 26 11 34 -22 104 -21 43 -43 77 -54 80 -10 2 -289 370
-621 818 l-603 813 -588 336 -589 337 -356 520 -355 520 -227 452 c-212 425
-230 465 -299 672 -41 121 -74 220 -74 220 0 0 147 -9 328 -22 317 -21 346
-25 972 -127 l645 -105 655 -289 655 -290 328 -268 328 -269 243 -395 243
-395 306 -690 306 -690 122 -611 121 -611 263 -402 263 -402 228 -532 c175
-409 262 -631 380 -960 l153 -427 61 -469 c59 -462 61 -478 99 -1172 l38 -704
-238 -638 -239 -638 -394 -535 c-329 -446 -410 -563 -492 -709 -70 -123 -103
-173 -114 -170 -8 2 -34 9 -58 15 -33 9 -42 15 -38 28 3 9 114 463 246 1007
l241 990 54 679 c30 373 55 700 55 727 0 27 -50 349 -111 716 l-111 666 -288
691 c-159 380 -347 822 -419 981 -154 340 -177 370 -236 310 l-25 -24 0 -1149
0 -1149 -306 -889 -306 -889 -194 -750 c-106 -412 -198 -759 -203 -770 -4 -11
-167 -252 -360 -535 l-352 -515 -162 -163 c-120 -121 -177 -171 -219 -193 -66
-33 -92 -65 -83 -102 9 -34 289 -370 318 -381 19 -7 132 27 538 163 l514 171
429 76 c235 41 429 74 430 72 2 -2 -20 -253 -48 -559 l-50 -556 -600 -381
-600 -382 -415 0 -416 0 -267 508 -267 508 136 599 136 598 364 616 364 616
229 742 228 741 -29 759 c-16 417 -29 766 -29 775 0 15 -1369 1559 -1426 1610
-10 9 -321 180 -690 380 l-671 364 -1236 337 c-679 185 -1250 337 -1267 337
-17 0 -217 -25 -443 -55 -344 -46 -415 -58 -431 -74 -24 -24 -24 -68 0 -91 11
-10 307 -168 659 -352 l640 -334 755 -307 755 -308 605 -578 605 -577 53 -377
c42 -292 60 -463 82 -764 l28 -388 -110 -445 c-61 -245 -114 -448 -117 -452
-3 -4 -158 156 -344 356 l-338 362 -156 51 c-145 48 -160 50 -188 38 -16 -7
-75 -33 -130 -58 -55 -25 -181 -75 -280 -112 -251 -93 -288 -107 -305 -121
-27 -21 -173 -71 -285 -99 -172 -42 -592 -56 -765 -25 -77 13 -287 78 -420
130 -52 20 -138 53 -190 73 -110 42 -373 195 -443 257 -58 52 -182 197 -225
266 -41 65 -67 88 -122 110 -25 10 -72 34 -105 53 -115 67 -149 81 -189 82
-49 0 -125 21 -306 84 -74 26 -166 51 -205 57 -46 7 -539 12 -1420 15 -1341 3
-1350 3 -1460 -18 -60 -11 -137 -32 -171 -45 -33 -13 -79 -24 -101 -24 -50 0
-321 -82 -382 -116 -64 -35 -205 -90 -307 -119 -49 -15 -107 -37 -129 -50 -23
-13 -72 -33 -110 -45 -39 -12 -79 -28 -90 -35 -11 -6 -38 -18 -60 -25 -22 -6
-62 -24 -90 -40 -27 -15 -75 -35 -105 -45 -30 -10 -73 -26 -95 -36 -22 -9 -57
-20 -78 -24 -20 -3 -65 -21 -100 -39 -34 -18 -80 -39 -102 -46 -70 -23 -226
-99 -258 -126 -17 -14 -56 -37 -86 -50 -30 -14 -78 -42 -106 -62 -27 -21 -66
-48 -85 -62 -19 -13 -60 -45 -90 -71 -30 -26 -71 -54 -90 -62 -19 -8 -57 -34
-84 -58 -27 -24 -70 -57 -96 -74 -126 -80 -192 -128 -267 -196 -134 -121 -214
-187 -293 -243 -74 -53 -130 -96 -213 -166 -23 -20 -69 -54 -101 -75 -32 -22
-75 -59 -94 -82 -19 -23 -45 -44 -56 -47 -12 -3 -62 -43 -111 -90 -50 -47
-121 -104 -160 -127 -143 -86 -293 -235 -397 -394 -25 -38 -79 -122 -121 -185
-89 -135 -115 -190 -123 -257 -5 -50 -20 -112 -61 -249 -13 -45 -28 -121 -33
-170 -5 -49 -14 -109 -21 -134 -6 -25 -22 -87 -35 -137 -13 -51 -24 -101 -24
-111 0 -10 -14 -65 -31 -123 -25 -83 -41 -117 -80 -169 -57 -75 -151 -153
-174 -144 -21 8 -93 123 -129 203 -16 36 -47 88 -70 116 -23 28 -124 175 -225
327 -101 152 -191 280 -200 283 -9 4 -352 55 -763 114 -411 59 -751 110 -754
114 -3 3 42 232 100 509 l105 503 56 902 c54 863 56 903 39 935 -9 18 -98 172
-197 342 l-181 310 -28 450 c-32 502 -29 491 -100 488 -34 -1 -736 -87 -795
-97 l-33 -6 0 924 c0 878 -1 926 -18 947 -23 28 -70 30 -92 3 -8 -11 -87 -248
-175 -526 l-160 -507 -186 0 -187 0 -212 293 c-116 160 -221 297 -233 304 -31
17 -42 16 -72 -10 l-26 -22 -29 -854 c-16 -469 -26 -861 -22 -870 3 -9 168
-277 365 -596 l359 -580 29 -755 28 -755 115 -600 115 -600 280 -1008 280
-1008 260 -492 c217 -412 308 -599 561 -1152 166 -363 309 -667 318 -676 10
-9 136 -56 281 -104 363 -120 347 -131 302 221 -28 226 -36 261 -136 633 -58
216 -105 399 -105 405 0 7 120 241 268 521 l267 509 385 184 385 184 43 -11
c70 -18 105 -13 238 36 129 47 210 94 328 190 61 49 190 207 227 276 27 51
109 305 109 337 0 22 36 168 75 306 8 28 15 78 15 111 0 41 14 107 45 214 25
85 45 165 45 178 0 14 26 63 59 111 32 47 66 102 76 120 29 57 126 181 185
238 30 29 79 66 109 83 30 17 99 68 153 112 55 45 116 92 138 105 21 12 62 49
92 80 29 32 78 75 108 95 30 21 82 60 115 87 33 27 98 78 144 112 47 35 110
86 140 114 31 28 76 65 101 82 25 16 68 54 95 82 49 51 135 114 244 178 31 18
72 48 91 66 19 18 52 42 73 54 21 12 68 46 105 75 122 96 206 153 256 171 27
11 66 34 87 53 23 21 76 49 141 73 57 22 126 50 153 63 28 13 79 34 115 46
205 74 252 92 273 105 13 9 49 25 81 36 33 11 64 24 70 28 6 5 52 24 101 41
50 18 100 39 113 47 13 8 64 28 115 43 104 33 195 68 282 110 101 50 235 91
292 91 31 0 79 10 120 26 37 14 108 34 157 45 86 18 139 19 1445 19 1149 0
1365 -3 1416 -15 33 -8 103 -14 156 -15 59 0 113 -6 139 -15 23 -8 66 -15 94
-15 28 0 57 -4 64 -9 8 -5 32 -121 62 -307 28 -169 101 -532 168 -833 l117
-534 389 -416 c505 -541 478 -514 513 -513 26 0 1142 606 1170 635 6 7 109
244 228 527 119 283 222 520 228 527 7 6 171 68 366 137 l353 126 252 -201
c138 -110 254 -208 258 -217 3 -9 16 -129 28 -267 11 -137 23 -270 27 -295 5
-42 16 -55 190 -232 l185 -186 -160 -1129 -161 -1128 5 -215 c2 -118 16 -919
29 -1780 l25 -1565 -447 -1620 -446 -1620 -562 -1236 -561 -1236 -1030 -1476
-1029 -1475 -630 -302 -630 -302 -335 20 -336 20 -513 257 -514 257 -591 502
c-325 276 -715 605 -866 730 -151 126 -283 236 -293 246 -14 13 -29 91 -72
371 -51 326 -62 379 -141 669 -50 185 -92 322 -102 332 -9 9 -216 109 -458
223 l-442 207 181 257 c165 235 189 275 290 481 60 124 110 235 110 248 0 34
-22 52 -183 150 -95 57 -266 181 -494 357 l-349 270 -246 273 -246 272 -533
897 -533 897 -139 586 -138 585 -56 710 c-56 705 -57 713 -54 1064 l3 355 295
136 295 136 6 -46 c6 -43 27 -73 234 -331 197 -246 235 -299 285 -399 l58
-115 283 -256 c231 -207 349 -304 629 -515 l345 -259 328 -3 327 -3 25 25 c32
32 32 57 -2 97 -28 32 -28 32 -3 16 14 -8 201 -70 415 -137 433 -134 465 -140
715 -140 l155 0 195 59 c107 33 256 85 330 116 113 48 155 60 258 75 l123 19
142 -25 c171 -29 198 -29 227 -6 24 20 30 63 11 86 -16 19 -443 196 -473 196
-12 0 -207 -63 -433 -141 l-410 -141 -186 -10 -186 -10 -214 65 c-118 36 -290
86 -384 111 -150 40 -459 145 -451 153 2 2 126 26 277 53 251 45 276 52 297
75 21 25 22 34 22 205 0 172 -1 180 -22 203 -22 24 -35 26 -335 55 l-311 31
-181 91 c-100 49 -181 92 -181 95 0 3 24 37 53 76 52 71 53 71 219 155 187 94
177 84 287 269 75 128 84 162 51 195 -19 19 -33 20 -251 20 l-230 0 -332 -56
c-325 -55 -341 -56 -784 -83 l-453 -26 0 66 0 67 188 213 187 213 196 141
c215 153 704 577 715 619 3 12 4 116 2 231 l-3 210 -201 370 -200 370 -225
158 c-123 87 -257 180 -297 207 l-74 50 -98 0 c-54 0 -106 -3 -115 -6 -9 -4
-299 -430 -644 -948 l-627 -941 -673 -1488 c-371 -819 -673 -1498 -673 -1510
0 -12 36 -135 81 -273 44 -138 81 -254 81 -256 0 -3 -23 -3 -51 0 -33 3 -109
30 -211 73 l-159 69 -221 0 -220 0 -287 229 c-244 197 -320 264 -517 463
l-232 233 -195 476 -195 476 -171 569 c-112 376 -209 725 -285 1029 -63 253
-199 771 -301 1150 l-186 690 -144 748 -144 748 -225 477 -224 477 -27 195
-26 195 28 834 28 834 -27 581 c-15 319 -30 591 -33 603 -8 32 -47 55 -79 47
-19 -4 -107 -104 -309 -345 -155 -186 -286 -349 -291 -362 -6 -16 25 -261 104
-811 l112 -787 -51 -572 c-28 -315 -54 -586 -56 -602 -4 -24 -78 -99 -380
-380 -207 -193 -379 -351 -383 -352 -4 -1 -45 64 -90 145 l-84 147 77 285 c58
213 127 428 276 854 109 313 199 581 199 595 0 14 -36 235 -81 489 l-82 464
82 466 82 467 225 760 c241 813 239 805 185 832 -14 6 -33 8 -45 4 -14 -5
-167 -254 -474 -772 l-453 -764 -250 -333 c-138 -183 -254 -344 -259 -358 -8
-19 16 -140 104 -542 110 -496 115 -525 130 -722 9 -113 19 -229 23 -259 l6
-54 -35 21 c-33 21 -47 22 -257 22 l-221 0 0 348 c1 263 4 363 15 412 8 36 14
92 15 124 0 32 9 98 20 145 60 261 89 404 94 466 3 39 17 117 31 175 14 57 28
132 31 165 4 33 20 112 37 175 16 63 33 138 38 167 4 28 10 56 13 61 3 5 15
73 26 150 11 77 24 151 29 166 6 14 22 73 36 130 14 58 40 138 57 178 16 40
43 111 58 158 15 47 45 123 65 170 20 47 63 154 95 239 40 106 68 165 91 192
21 23 393 270 993 659 l958 621 487 201 c267 110 779 317 1136 460 l650 260
568 154 c393 107 711 200 1033 304 l465 150 497 76 c448 67 553 87 1062 200
l565 124 565 236 565 235 365 330 c334 302 396 353 727 598 198 148 372 272
385 276 12 4 46 31 75 59 28 29 96 80 150 114 54 35 121 81 148 103 44 35 133
91 244 154 200 114 250 141 313 165 40 15 135 53 212 84 76 31 147 56 158 56
41 0 146 33 312 99 185 74 325 108 486 121 52 4 412 7 800 6 658 -1 708 -2
755 -19z m1390 -10690 c342 -79 518 -117 585 -127 84 -13 604 -10 632 4 10 4
-32 -79 -95 -192 l-112 -199 -173 -124 c-96 -68 -180 -128 -188 -132 -12 -7
-387 -58 -390 -54 -1 1 -60 144 -132 318 -85 204 -155 357 -197 429 -36 61
-60 110 -53 107 7 -3 63 -17 123 -30z m-10051 -10742 l166 -700 954 -2860
c763 -2288 1178 -3511 2075 -6114 617 -1790 1128 -3262 1135 -3270 8 -9 127
-536 265 -1171 139 -635 257 -1160 264 -1167 23 -22 62 -25 86 -6 18 14 137
394 617 1958 l595 1940 798 1620 798 1620 153 505 c92 302 232 802 349 1244
l196 740 558 226 c307 125 567 236 577 246 27 28 1439 2350 1468 2414 67 149
147 311 181 365 21 33 63 102 92 152 35 61 60 93 72 93 27 0 21 -46 -12 -99
-130 -209 -274 -494 -274 -543 0 -16 7 -37 17 -46 9 -9 89 -48 177 -87 l160
-70 632 -1350 631 -1350 -132 -1842 c-121 -1697 -133 -1846 -152 -1883 l-21
-41 -33 28 c-18 15 -292 279 -609 585 -316 307 -586 562 -599 567 -32 12 -66
-3 -78 -34 -7 -19 8 -170 56 -573 62 -524 70 -576 195 -1239 71 -381 129 -704
129 -719 0 -14 -106 -372 -236 -797 l-235 -771 -529 -969 -528 -969 -543 -478
-543 -477 -1702 -1018 c-937 -559 -1708 -1023 -1714 -1030 -5 -6 -88 -305
-183 -664 l-172 -651 -378 755 -377 755 -2946 3078 c-1621 1692 -2971 3102
-3000 3132 l-54 56 87 295 86 296 219 199 219 199 517 669 c284 368 520 678
524 688 11 27 -8 67 -36 78 -18 7 -420 -42 -1473 -179 l-1447 -188 -158 118
-157 119 -52 163 c-29 89 -69 207 -90 262 -27 73 -43 139 -58 245 -11 80 -39
228 -62 330 l-41 185 181 1845 181 1845 325 925 c179 509 393 1119 475 1355
185 529 185 530 229 582 91 105 383 320 541 397 47 23 130 67 185 98 55 31
119 62 143 68 24 6 92 36 151 66 124 63 220 86 351 83 137 -3 197 -29 380
-167 117 -88 154 -126 201 -204 48 -79 60 -90 96 -90 31 0 72 42 104 109 l20
42 -80 443 c-79 435 -81 446 -80 598 0 85 2 151 4 145 2 -5 78 -325 169 -710z
m3986 -4303 c278 -121 516 -223 530 -227 14 -4 158 -107 320 -230 l295 -222
840 -288 c462 -158 873 -299 913 -312 43 -15 72 -30 72 -39 0 -7 10 -20 23
-28 12 -8 188 -79 391 -156 l369 -142 69 26 c38 14 68 22 66 17 -2 -4 -106
-192 -232 -417 l-230 -409 -795 -1170 -795 -1170 -491 -1140 c-478 -1110 -497
-1155 -701 -1717 -115 -317 -212 -574 -215 -570 -4 4 -451 1485 -994 3292
-543 1807 -989 3287 -990 3290 -2 3 196 135 440 293 l443 287 353 -164 c195
-89 508 -226 695 -304 296 -123 345 -141 368 -132 35 13 51 54 33 89 -7 14
-288 395 -623 846 -741 998 -692 930 -674 923 8 -3 242 -105 520 -226z
m-14875 -1928 c-31 -170 -64 -352 -75 -404 -11 -52 -26 -133 -33 -180 -8 -47
-28 -146 -45 -220 -66 -298 -83 -390 -88 -481 -4 -55 -83 -531 -191 -1139
l-185 -1045 6 -265 c3 -146 42 -1775 85 -3620 l80 -3355 386 -1714 c255 -1136
392 -1722 404 -1740 472 -675 1900 -2703 1916 -2721 12 -14 32 -51 44 -82 13
-32 35 -77 50 -100 15 -24 43 -72 63 -108 20 -36 61 -92 91 -125 l55 -60 102
-340 c56 -187 105 -347 107 -356 4 -13 -112 -63 -604 -259 -334 -134 -616
-250 -627 -259 -14 -12 -167 -235 -241 -353 -54 -85 -98 -138 -116 -138 -11 0
-52 18 -91 41 -40 22 -86 43 -102 46 -16 4 -39 16 -50 29 -12 12 -615 354
-1341 759 l-1320 737 -820 39 c-1526 71 -1909 90 -1912 92 -1 2 204 22 455 46
251 23 565 53 697 66 132 13 515 50 850 81 l610 58 599 -256 c457 -196 603
-255 620 -249 11 5 28 20 36 34 13 23 -5 178 -199 1729 -117 937 -219 1714
-225 1727 -7 16 -357 250 -1051 703 -572 373 -1059 687 -1081 697 -23 10 -59
34 -80 53 -22 20 -68 53 -104 75 -81 49 -1312 852 -1323 863 -5 4 281 -51 635
-122 354 -70 654 -130 668 -132 30 -4 67 -24 169 -92 42 -28 586 -385 1210
-794 737 -482 1144 -742 1160 -742 43 0 61 34 61 121 0 42 -54 2166 -120 4720
-95 3690 -122 4646 -132 4652 -11 7 -11 9 0 9 11 0 12 47 6 258 l-7 257 292
1080 c161 594 303 1107 316 1140 13 33 28 89 33 125 9 61 403 1533 409 1527 1
-2 -22 -143 -52 -313z m28234 -924 c11 -47 21 -106 21 -131 0 -75 132 -584
186 -712 50 -120 83 -258 83 -348 1 -31 13 -97 27 -145 14 -49 43 -172 64
-274 21 -102 45 -205 54 -229 9 -24 16 -60 16 -79 0 -39 37 -250 76 -427 13
-60 28 -139 34 -173 6 -35 20 -92 30 -125 23 -77 38 -153 46 -237 3 -36 16
-105 29 -155 27 -102 94 -405 106 -480 4 -27 22 -111 39 -185 38 -165 53 -280
45 -342 -5 -40 0 -61 30 -134 44 -106 65 -191 65 -268 0 -97 26 -169 76 -216
24 -22 50 -40 57 -40 8 0 39 -43 68 -96 74 -131 97 -157 139 -157 42 0 69 31
103 122 14 36 39 104 57 151 18 47 47 129 66 183 61 179 183 481 231 572 26
49 55 110 65 135 l18 45 -3 -245 c-4 -244 -4 -246 -40 -389 -21 -80 -37 -161
-37 -182 0 -39 -4 -62 -49 -279 -26 -122 -31 -168 -31 -287 0 -121 3 -151 21
-199 21 -57 21 -58 4 -108 -17 -45 -19 -96 -22 -451 l-4 -400 31 -119 30 -119
0 -324 0 -325 340 -1909 340 -1910 851 -2427 c520 -1480 860 -2436 873 -2451
48 -54 770 -687 793 -695 19 -6 32 -3 56 15 17 12 481 435 1031 938 l999 916
646 122 c355 67 658 122 672 123 23 0 1051 -389 1066 -404 4 -4 100 -441 191
-870 l10 -49 -33 34 c-18 19 -194 210 -390 424 -196 215 -366 394 -378 399
-22 8 -1849 -234 -1912 -254 -20 -7 -179 -159 -461 -442 l-431 -433 -418 -544
c-230 -299 -424 -556 -431 -570 -7 -14 -42 -190 -78 -391 -37 -201 -69 -377
-72 -392 -5 -25 -65 47 -605 731 l-599 758 -286 172 -287 171 -422 0 -421 0
-380 55 c-226 32 -820 135 -1474 254 l-1095 199 -1002 301 -1003 301 -677 0
-678 0 -490 -49 -491 -50 -639 -170 c-351 -94 -640 -169 -643 -167 -7 7 25 21
558 234 289 116 820 337 1180 491 360 155 664 281 675 281 11 0 268 -47 570
-104 323 -61 554 -100 559 -95 13 12 29 12 21 0 -3 -5 3 -12 12 -15 10 -2 803
-152 1763 -331 960 -179 1759 -333 1777 -341 41 -18 1529 -89 1569 -74 13 5
28 20 33 33 5 14 -7 663 -30 1612 l-38 1590 -806 2945 c-442 1620 -807 2956
-810 2970 -46 206 -244 863 -519 1720 l-334 1045 -42 1575 c-23 866 -40 1640
-38 1720 4 132 7 151 33 213 16 37 32 64 35 60 4 -5 17 -46 29 -93z m-12031
-15346 c46 -9 115 -34 172 -62 79 -38 109 -61 180 -132 71 -71 94 -101 132
-180 28 -57 53 -126 62 -172 33 -164 13 -315 -62 -468 -38 -79 -61 -109 -132
-180 -71 -71 -101 -94 -180 -132 -211 -104 -428 -104 -640 -1 -79 39 -109 61
-181 133 -70 71 -93 103 -132 180 -103 211 -103 428 1 640 38 79 60 109 131
181 72 71 102 93 181 132 152 74 305 94 468 61z m-6336 -383 c316 -126 485
-185 1103 -385 935 -304 885 -286 880 -311 -3 -11 -66 -434 -140 -940 -74
-506 -137 -930 -140 -942 -5 -21 -6 -21 -42 -7 -20 9 -60 34 -89 57 -29 23
-68 52 -86 65 -127 87 -201 144 -216 164 -24 31 -122 196 -122 205 0 4 -11 18
-23 32 -13 15 -30 42 -38 61 -7 19 -25 53 -40 75 -15 22 -43 87 -63 145 -20
58 -49 123 -64 145 -15 22 -42 86 -60 141 -28 89 -37 106 -72 135 -23 19 -69
59 -103 89 -68 61 -145 113 -228 155 -30 15 -73 41 -97 57 -24 16 -80 42 -125
57 -45 16 -109 42 -141 60 -32 17 -65 31 -73 31 -7 0 -67 23 -133 50 -66 28
-126 50 -133 50 -7 0 -34 13 -59 29 -42 27 -149 59 -265 81 -26 5 -86 21 -133
35 -47 15 -112 28 -145 30 -33 3 -74 7 -90 10 -70 12 -351 6 -420 -9 -93 -20
-289 -89 -330 -116 -5 -4 -68 -38 -140 -75 -154 -80 -284 -167 -378 -250 -124
-110 -239 -174 -430 -240 -56 -20 -160 -68 -231 -107 -71 -39 -156 -81 -190
-94 -54 -19 -173 -81 -201 -104 -34 -27 -269 -149 -318 -165 -23 -7 -78 -28
-122 -45 -44 -17 -100 -38 -124 -47 -24 -9 -80 -36 -124 -61 -44 -25 -110 -56
-146 -69 -134 -49 -271 -93 -291 -93 -27 0 -261 -80 -321 -110 -24 -12 -91
-39 -149 -60 -58 -21 -176 -66 -263 -99 -87 -33 -179 -63 -205 -67 -26 -4 -92
-22 -147 -41 -55 -19 -107 -36 -115 -38 -8 -2 -49 -10 -91 -19 -42 -8 -107
-29 -146 -45 -39 -17 -92 -35 -119 -41 -27 -6 -117 -40 -201 -76 -83 -35 -158
-64 -165 -64 -7 0 -48 -11 -91 -25 -43 -14 -90 -25 -105 -25 -15 0 -72 -13
-128 -29 -55 -16 -123 -32 -150 -36 -78 -10 -470 -93 -574 -122 -52 -14 -123
-29 -157 -33 -34 -4 -76 -15 -94 -24 -18 -9 -47 -19 -63 -21 -17 -3 -74 -16
-126 -29 -52 -13 -113 -27 -135 -31 -62 -10 -175 -46 -225 -70 -25 -12 -65
-25 -89 -28 -24 -3 -51 -13 -60 -22 -18 -18 -18 -27 -1 -620 5 -192 15 -728
21 -1190 l11 -840 74 -355 75 -354 240 -580 239 -580 501 -795 c276 -438 514
-808 530 -823 16 -16 38 -28 49 -28 10 0 263 110 562 245 475 214 645 297
1358 666 l815 421 390 139 390 140 205 26 205 26 285 -17 c157 -10 510 -39
785 -66 448 -44 502 -48 522 -35 42 28 38 51 -45 296 -90 264 -117 330 -155
375 -23 27 -27 41 -27 95 0 51 -11 97 -55 226 -59 175 -132 347 -169 397 -12
17 -23 41 -24 54 0 15 -25 47 -64 85 -35 34 -71 77 -81 95 -9 19 -26 36 -37
39 -20 5 -20 14 -20 372 0 310 -2 375 -16 414 -9 26 -50 91 -91 145 -70 91
-129 198 -187 341 -14 34 -37 76 -51 93 -15 17 -44 66 -66 109 -35 70 -39 86
-39 152 0 73 0 74 43 118 26 27 49 66 61 99 10 30 29 79 42 108 65 143 77 226
50 325 -8 29 -17 75 -20 103 -9 77 -30 127 -86 200 -90 118 -197 241 -271 313
-21 20 -49 59 -63 88 -14 29 -40 68 -57 87 -16 19 -34 50 -40 68 -5 18 -9 137
-9 264 l0 232 35 52 c33 49 65 133 65 170 0 20 38 118 54 139 6 8 45 39 86 69
41 30 93 72 115 92 56 53 106 82 221 128 149 61 275 86 388 79 50 -3 102 -8
116 -11 13 -3 42 -8 65 -11 70 -10 98 -16 184 -41 l83 -25 -7 -32 c-4 -18 -11
-131 -15 -252 -6 -156 -13 -235 -24 -272 -11 -36 -13 -58 -7 -76 9 -23 180
-177 197 -177 14 0 109 -64 152 -102 23 -21 52 -43 65 -48 24 -10 135 -84 213
-142 27 -20 63 -56 79 -79 30 -43 72 -87 162 -169 28 -25 61 -64 75 -85 14
-22 53 -71 87 -109 34 -39 67 -80 74 -92 23 -42 98 -134 121 -149 19 -13 46
-54 46 -70 0 -3 -71 -5 -158 -5 -128 0 -183 -5 -286 -25 -126 -25 -135 -25
-634 -25 -463 0 -510 -2 -542 -18 -73 -36 -65 -80 81 -439 113 -277 124 -295
199 -327 19 -8 60 -37 90 -64 30 -27 75 -59 100 -72 25 -12 71 -40 102 -61 32
-22 60 -39 64 -39 3 0 29 -11 57 -23 29 -13 84 -36 122 -50 39 -14 106 -40
150 -57 44 -18 103 -36 130 -40 147 -26 487 -93 530 -105 28 -7 70 -17 95 -20
25 -4 71 -14 102 -21 31 -8 92 -19 135 -25 43 -6 105 -14 138 -19 33 -5 110
-13 171 -19 61 -6 149 -20 195 -31 52 -12 118 -20 174 -20 l90 0 -17 -122
c-10 -68 -34 -204 -54 -303 -37 -185 -59 -306 -69 -385 -3 -25 -9 -51 -14 -58
-6 -11 -202 -5 -1080 33 -590 25 -1080 43 -1090 40 -31 -10 -73 -62 -73 -91 0
-27 31 -63 56 -65 6 0 484 -71 1061 -157 l1050 -157 3 -46 c4 -66 -44 -419
-80 -584 -16 -77 -38 -214 -48 -305 -31 -289 -42 -351 -60 -344 -69 29 -67 29
-412 -84 -235 -77 -433 -134 -670 -193 l-338 -84 -822 68 c-753 62 -1457 113
-1633 119 l-70 2 -1700 -738 c-935 -407 -1707 -745 -1716 -752 -8 -8 -29 -14
-45 -14 -16 0 -44 -4 -62 -9 -32 -10 -36 -6 -378 287 l-346 297 -355 635 -355
635 -299 915 -300 915 -20 815 -20 815 156 714 c85 393 156 716 158 717 1 1
1090 297 2420 658 l2419 656 1121 728 c617 401 1129 733 1137 738 12 6 889
148 947 153 7 1 181 -66 385 -148z m26943 -1383 c418 -580 558 -780 559 -803
1 -29 1 -29 -169 -87 -211 -72 -347 -114 -403 -122 l-42 -6 16 37 c45 105 55
148 49 203 -10 86 -33 157 -86 265 -39 78 -66 116 -122 173 -80 81 -125 111
-223 148 -58 22 -71 23 -103 13 -78 -25 -124 -105 -100 -177 16 -50 43 -78
106 -107 92 -42 139 -89 182 -179 52 -109 55 -145 21 -226 -15 -36 -39 -97
-54 -136 -27 -73 -86 -193 -196 -398 l-64 -118 -170 6 c-94 3 -686 13 -1316
22 -630 10 -1147 18 -1148 20 -11 8 500 771 847 1264 222 316 409 581 416 589
9 9 1390 385 1436 390 3 1 257 -347 564 -771z m-24555 588 c29 -13 60 -21 68
-19 17 7 123 -28 129 -43 2 -6 -44 -427 -102 -935 -58 -508 -105 -930 -105
-936 0 -22 -157 -16 -263 9 -50 12 -93 22 -95 24 -3 1 267 1797 284 1892 7 38
12 38 84 8z m693 -282 c67 -18 257 -109 322 -155 57 -40 1458 -618 1518 -626
42 -5 47 -8 47 -32 0 -14 7 -145 15 -291 8 -146 15 -273 15 -282 0 -24 -56
-24 -81 -2 -16 15 -57 17 -316 19 -164 1 -398 6 -520 10 -242 8 -293 4 -503
-41 -160 -34 -287 -66 -325 -83 -22 -10 -69 -41 -105 -70 -36 -29 -91 -66
-122 -82 -55 -28 -64 -29 -188 -29 -128 0 -130 0 -130 23 0 28 179 1664 185
1695 l5 22 60 -30 c33 -17 89 -38 123 -46z m11587 -1360 l8605 -625 1815 -465
c998 -257 1819 -470 1823 -474 7 -6 -138 -2228 -146 -2236 -1 -1 -4547 -498
-10102 -1103 -5555 -605 -10111 -1103 -10125 -1105 l-26 -5 -448 2157 c-247
1186 -448 2170 -448 2187 1 38 -23 151 -42 201 -17 42 -430 2023 -424 2029 2
3 96 -1 208 -6 l205 -11 185 45 c152 38 197 45 250 41 36 -2 3937 -286 8670
-630z m-12557 -1029 c100 -29 167 -53 167 -60 0 -7 -202 -1299 -450 -2871
-351 -2233 -455 -2877 -477 -2941 l-27 -83 -138 0 -138 0 5 93 c3 50 15 293
25 540 11 246 24 455 29 465 5 9 72 433 150 942 77 509 146 945 152 970 7 25
14 66 15 91 6 76 302 1997 323 2094 11 50 32 153 46 230 15 77 47 238 71 358
24 121 44 221 44 224 0 6 -10 9 203 -52z m822 -195 c567 -126 667 -150 830
-205 97 -32 209 -61 285 -74 144 -25 287 -55 380 -81 36 -9 92 -23 125 -30 33
-6 80 -17 105 -23 29 -8 117 -11 250 -9 l206 3 23 -25 c28 -30 112 -60 144
-52 22 5 23 0 50 -147 15 -84 27 -166 27 -183 0 -17 7 -53 15 -80 15 -47 120
-586 127 -649 l3 -30 -325 -31 -325 -31 -924 109 -924 109 -281 115 c-154 64
-284 118 -288 122 -8 9 86 824 101 871 6 19 10 64 10 101 -1 67 3 108 22 233
9 56 14 67 27 63 10 -3 161 -37 337 -76z m-400 -1886 c61 -8 773 -50 1584 -94
811 -43 1477 -83 1481 -87 18 -21 53 -178 60 -273 5 -58 27 -199 49 -315 23
-115 41 -211 41 -212 0 -10 -239 0 -295 12 -93 20 -330 20 -365 1 -14 -8 -94
-49 -178 -91 l-152 -77 -1243 193 c-683 105 -1244 193 -1246 195 -2 2 16 176
40 388 l44 385 35 -5 c19 -3 85 -12 145 -20z m-129 -1205 c82 -17 158 -33 169
-35 11 -2 357 -34 770 -70 412 -36 751 -66 752 -68 8 -8 -229 -100 -329 -127
-64 -18 -132 -44 -157 -60 -25 -16 -48 -29 -53 -29 -5 0 -47 -18 -94 -40 -86
-40 -165 -70 -186 -70 -5 0 -42 -15 -82 -33 -39 -19 -87 -39 -107 -46 -20 -6
-54 -27 -76 -46 l-41 -35 -416 -66 c-229 -37 -420 -64 -423 -60 -6 6 69 719
83 789 4 17 12 27 23 27 10 0 85 -14 167 -31z m3204 -110 c58 -5 128 -15 157
-21 l51 -11 31 -166 c17 -91 42 -215 56 -276 26 -120 43 -203 81 -395 13 -69
35 -174 49 -235 14 -60 32 -148 41 -195 8 -47 33 -148 54 -225 21 -77 50 -201
65 -275 29 -153 45 -184 96 -188 19 -1 3236 348 7150 778 3914 429 7120 780
7123 780 3 0 12 -15 21 -32 8 -18 33 -62 55 -98 22 -36 49 -85 61 -110 64
-137 98 -197 129 -228 19 -20 51 -58 71 -86 34 -50 98 -107 209 -188 30 -23
73 -58 95 -79 22 -21 58 -45 80 -54 22 -10 63 -32 90 -50 51 -33 116 -60 262
-111 l83 -29 0 -146 c0 -105 -4 -159 -15 -189 -8 -23 -15 -62 -15 -87 0 -55
-49 -222 -88 -300 -17 -32 -38 -86 -47 -119 -10 -32 -29 -81 -43 -109 -13 -27
-33 -72 -43 -100 -10 -27 -31 -84 -47 -125 -17 -41 -44 -110 -61 -154 -16 -43
-39 -88 -49 -100 -11 -11 -27 -36 -37 -55 -9 -18 -48 -76 -86 -129 -38 -53
-69 -106 -69 -118 0 -52 79 -164 115 -164 16 0 547 -547 537 -554 -10 -6 -116
-28 -267 -56 -105 -19 -155 -20 -1160 -20 l-1050 -1 -7325 166 c-4029 92
-7339 168 -7355 171 l-30 4 86 1705 c62 1206 91 1710 99 1720 7 8 19 15 26 15
8 0 33 17 57 38 60 56 315 181 371 183 11 0 37 7 56 14 43 17 190 19 330 4z
m21217 -206 c7 -32 22 -89 33 -128 29 -95 41 -198 46 -409 5 -173 4 -183 -21
-265 -15 -47 -34 -102 -44 -121 -10 -19 -28 -62 -40 -95 -12 -33 -41 -87 -64
-120 l-43 -60 -1174 -3 -1174 -2 -170 30 c-285 49 -318 50 -1162 50 -879 -1
-804 -6 -979 66 -45 18 -121 40 -170 50 -50 9 -117 27 -150 39 -33 12 -82 31
-110 40 -27 10 -59 26 -70 36 -11 9 -43 28 -71 42 -27 14 -57 33 -64 43 -8 9
-31 27 -52 40 -34 22 -98 74 -174 144 -18 15 -46 36 -63 44 -22 12 -42 37 -67
88 -40 80 -66 156 -55 162 4 3 44 10 90 15 45 6 86 13 90 15 9 6 127 32 231
52 41 7 107 14 147 14 39 0 84 5 98 10 14 6 81 21 148 35 67 14 169 36 227 49
58 13 132 30 165 37 45 10 245 15 815 19 675 5 760 8 805 23 45 15 122 17 835
17 l785 0 155 30 c85 17 180 37 210 45 85 22 78 22 565 24 l460 1 12 -57z
m-22586 -1817 c-89 -940 -164 -1692 -170 -1695 -13 -8 -1652 -184 -1658 -178
-2 3 17 86 42 186 66 263 775 2963 780 2971 5 8 125 57 215 89 30 10 84 32
120 49 36 17 119 52 185 77 206 79 276 107 422 167 77 32 158 62 180 66 36 8
38 7 41 -17 1 -15 -69 -786 -157 -1715z m19864 351 l210 -37 1216 0 1216 0 27
-59 c15 -33 36 -99 47 -148 11 -48 30 -126 41 -173 31 -127 39 -203 44 -445 5
-205 4 -225 -17 -298 -17 -61 -26 -78 -43 -82 -102 -22 -203 -25 -871 -25
l-732 0 -1209 290 c-665 160 -1228 298 -1252 308 -41 16 -51 28 -118 132 -24
37 -57 109 -69 150 -4 14 -16 41 -26 60 -16 30 -19 58 -19 203 l0 168 673 -3
672 -4 210 -37z"/>
<path d="M29190 62593 c-8 -3 -184 -173 -390 -377 -308 -306 -384 -376 -428
-396 -35 -16 -54 -31 -58 -46 -8 -32 3 -59 29 -72 12 -7 224 -47 470 -91 246
-43 450 -80 452 -82 2 -3 77 -395 166 -873 l163 -868 -53 -351 -53 -352 -273
-605 c-151 -333 -278 -617 -284 -632 -7 -20 -2 -178 18 -565 l28 -538 143
-400 c88 -249 150 -408 164 -421 25 -26 694 -490 734 -510 26 -12 614 -64 735
-64 70 0 81 13 85 104 1 39 -35 511 -82 1048 l-84 977 220 633 c207 595 618
1862 618 1905 0 10 -128 172 -284 359 l-284 341 -336 814 c-185 448 -342 819
-349 826 -7 7 -237 62 -512 123 -593 132 -537 120 -555 113z"/>
<path d="M25896 61161 l-479 -479 -586 -223 c-322 -122 -594 -229 -603 -237
-10 -8 -18 -27 -18 -41 0 -29 106 -619 115 -644 4 -8 17 -19 31 -26 22 -10 93
10 548 154 288 91 529 165 537 165 8 0 194 -72 414 -160 l400 -161 220 -248
c219 -248 220 -249 436 -417 l217 -168 -24 -19 c-42 -33 -24 -107 26 -107 32
0 1204 281 1218 292 6 6 12 27 12 46 0 34 -19 55 -309 347 l-309 310 -107 399
-106 398 167 502 c173 519 179 542 136 565 -19 10 -1384 231 -1429 231 -24 0
-105 -77 -507 -479z"/>
<path d="M23405 59390 c-11 -4 -257 -207 -547 -451 l-526 -444 -474 -83 c-321
-57 -479 -89 -490 -99 -21 -19 -24 -66 -5 -85 8 -7 91 -64 185 -127 148 -98
179 -114 219 -118 27 -2 298 -15 603 -29 305 -13 558 -28 561 -32 3 -4 36
-106 73 -227 37 -121 85 -277 107 -346 l39 -126 366 -338 366 -338 281 -336
c154 -185 287 -341 296 -347 9 -6 232 -100 496 -209 264 -108 528 -221 587
-251 161 -81 188 -72 188 57 l0 75 -385 688 c-212 379 -385 691 -383 695 2 4
235 287 518 630 283 342 519 632 524 644 10 26 -97 856 -115 888 -6 11 -20 24
-32 28 -13 5 -437 -15 -1020 -47 l-998 -55 -192 190 c-106 105 -199 193 -207
195 -8 3 -24 2 -35 -2z"/>
<path d="M20244 57938 c-44 -30 -55 -46 -119 -174 -38 -77 -85 -160 -103 -185
-24 -33 -36 -66 -48 -124 -8 -44 -22 -107 -32 -140 -15 -52 -17 -113 -17 -475
l0 -415 34 -70 c19 -38 48 -95 66 -125 18 -30 40 -78 49 -106 22 -68 58 -124
198 -306 124 -162 152 -189 238 -233 61 -31 160 -103 160 -116 0 -5 15 -26 33
-46 43 -49 113 -228 121 -311 4 -34 16 -90 27 -124 18 -58 19 -97 19 -1039 0
-666 3 -987 11 -1006 15 -40 59 -83 84 -83 33 0 65 41 65 82 0 62 20 189 45
285 28 105 95 407 119 534 9 48 36 145 62 215 257 723 330 977 382 1334 49
331 52 373 55 637 2 292 5 283 -106 323 -34 13 -123 49 -197 80 -74 32 -166
67 -205 79 -239 72 -387 164 -466 289 -23 37 -61 96 -84 132 -64 98 -135 244
-157 324 -11 39 -29 103 -41 141 -18 61 -21 97 -21 285 -1 118 3 238 8 265 7
44 5 53 -14 78 -32 41 -101 39 -166 -5z"/>
<path d="M27745 57581 c-178 -66 -1295 -508 -1457 -577 -189 -81 -464 -232
-495 -272 -19 -26 -15 -56 10 -79 25 -23 947 -620 971 -629 20 -8 793 46 823
57 14 5 105 133 251 351 126 189 231 351 235 361 7 20 -217 765 -236 783 -22
22 -52 23 -102 5z"/>
<path d="M23285 55350 c-15 -17 -19 -62 -30 -427 l-13 -408 -100 -350 -100
-350 -204 -396 c-112 -219 -210 -405 -218 -415 -34 -41 -632 -574 -644 -574
-15 0 -235 -172 -253 -198 -7 -10 -49 -125 -92 -256 -67 -199 -78 -242 -70
-264 14 -37 25 -42 99 -42 59 0 83 8 281 91 l217 91 373 291 372 292 194 433
c181 405 200 455 299 760 l105 327 -11 240 c-10 213 -91 1068 -106 1120 -16
53 -66 71 -99 35z"/>
<path d="M26885 55035 c-522 -101 -958 -186 -967 -190 -17 -7 -143 -242 -158
-294 -11 -41 5 -70 52 -91 43 -18 45 -18 933 50 l890 68 995 -79 995 -79 780
-176 c776 -174 783 -176 1365 -350 l584 -175 346 46 345 45 340 147 c187 80
350 155 363 166 27 25 28 58 3 81 -11 10 -191 119 -401 242 l-382 224 -100 0
c-55 0 -380 -9 -721 -20 l-622 -20 -805 190 -805 191 -1000 99 c-550 54 -1018
101 -1040 103 -26 3 -378 -61 -990 -178z"/>
<path d="M24510 48334 c-289 -129 -533 -242 -542 -251 -40 -36 -7 -95 54 -95
18 0 296 39 618 87 l585 87 325 -17 325 -17 625 -205 c652 -214 940 -323 1375
-519 207 -93 212 -96 311 -185 l101 -90 68 -171 68 -171 26 -236 26 -236 -25
-177 -25 -178 -95 -97 c-230 -236 -260 -270 -260 -297 0 -36 33 -66 73 -65 17
0 214 71 437 157 352 137 407 161 417 184 11 21 5 109 -32 523 -26 274 -51
508 -57 519 -6 12 -84 127 -174 256 -160 231 -167 239 -366 435 l-203 200
-1000 398 -1000 398 -565 -1 -565 0 -525 -236z"/>
<path d="M33943 48505 l-231 -10 -44 -30 c-205 -144 -114 -108 -1129 -459
l-934 -323 -263 -43 c-301 -50 -312 -54 -312 -126 0 -52 119 -351 152 -381 20
-18 36 -14 632 136 l611 154 743 298 743 298 194 26 194 25 73 -36 c69 -34 75
-40 120 -115 l47 -80 10 -165 c9 -177 18 -204 66 -204 36 0 53 31 69 120 39
232 78 521 73 542 -4 13 -75 91 -159 174 l-153 151 -80 17 c-44 9 -105 23
-135 29 -42 10 -109 10 -287 2z"/>
<path d="M33775 46556 c-97 -25 -338 -151 -724 -380 l-95 -56 -347 0 -348 0
-233 89 c-202 78 -266 98 -482 147 l-249 57 -159 -79 c-88 -43 -164 -87 -169
-96 -15 -28 -10 -74 9 -91 16 -15 48 -17 236 -17 258 0 313 -11 566 -110 85
-34 220 -79 300 -101 l145 -39 214 0 213 0 381 136 382 136 230 150 c126 83
238 157 248 166 22 20 22 64 -1 85 -22 20 -48 20 -117 3z"/>
<path d="M28154 43832 l-170 -87 -180 -162 -179 -162 -34 -138 c-19 -76 -48
-174 -64 -218 -30 -77 -37 -86 -193 -245 -222 -227 -360 -419 -624 -870 -123
-210 -270 -444 -377 -599 -162 -235 -174 -256 -168 -288 5 -27 -1 -45 -30 -95
-20 -34 -37 -74 -37 -88 -1 -29 248 -508 285 -547 11 -13 30 -23 42 -23 26 0
55 29 55 56 0 10 -40 161 -90 334 l-90 314 160 272 c115 197 254 410 507 777
l349 506 189 155 190 156 110 174 c60 96 111 174 112 172 2 -1 -11 -96 -29
-209 l-32 -207 69 -243 c38 -133 73 -249 79 -259 5 -9 46 -38 90 -64 45 -27
108 -74 141 -106 60 -56 65 -58 300 -144 214 -78 248 -87 311 -88 58 -1 76 3
93 18 32 29 26 51 -35 137 -52 74 -54 79 -32 79 22 0 589 -188 664 -220 42
-18 80 -7 92 28 8 24 4 48 -23 128 -18 54 -36 107 -40 116 -12 28 -54 36 -110
21 l-50 -14 -270 97 -270 97 -128 5 c-198 6 -222 -13 -174 -145 l26 -73 -32
14 c-92 39 -403 179 -409 185 -4 3 -30 204 -58 446 -28 242 -53 447 -55 456
-4 12 47 44 216 133 l220 118 217 -31 c119 -17 219 -34 222 -39 4 -4 33 -40
65 -80 79 -99 158 -138 199 -96 36 36 22 62 -159 279 -96 115 -181 212 -188
216 -32 17 -448 139 -473 139 -16 -1 -106 -40 -200 -88z"/>
<path d="M31162 43607 c-48 -49 -45 -93 13 -177 28 -41 65 -119 100 -212 l55
-146 0 -191 c0 -162 -3 -203 -21 -269 -11 -42 -21 -77 -22 -77 -1 -1 -40 -14
-87 -30 -47 -16 -100 -39 -118 -51 -18 -13 -50 -28 -70 -35 -20 -6 -51 -20
-68 -30 -17 -10 -61 -23 -98 -28 -37 -5 -73 -14 -79 -19 -21 -18 -121 -52
-150 -52 -15 0 -45 -9 -65 -19 -21 -11 -56 -22 -77 -26 -98 -17 -142 -36 -194
-83 -43 -38 -54 -54 -58 -88 -5 -36 -1 -45 27 -77 27 -31 38 -37 73 -37 32 0
48 7 72 29 28 28 122 61 171 61 11 0 33 7 49 16 17 9 53 20 81 24 29 5 81 22
117 39 36 17 80 31 98 31 19 0 61 12 94 26 33 14 83 35 110 46 28 11 57 26 65
33 8 7 47 25 85 39 47 17 81 37 103 61 18 19 38 35 45 35 15 0 60 45 74 75 5
11 18 50 27 87 15 57 17 103 14 335 l-4 268 -57 143 c-57 143 -140 289 -180
317 -38 27 -89 19 -125 -18z"/>
<path d="M29977 40890 c-200 -65 -326 -78 -617 -61 -182 11 -213 10 -280 -4
-41 -9 -272 -56 -512 -105 l-438 -90 -340 -25 c-210 -15 -423 -25 -556 -25
l-215 0 -25 -25 c-23 -24 -25 -31 -19 -78 4 -29 11 -59 15 -67 8 -14 97 -101
171 -166 20 -17 210 -229 422 -472 l387 -440 182 -67 183 -68 480 -8 c264 -4
597 -8 740 -10 l260 -2 230 66 c176 50 274 84 415 146 214 94 697 343 721 371
9 10 105 189 214 397 109 208 208 392 221 410 13 17 24 36 24 42 0 6 10 30 21
54 14 28 20 54 16 69 -13 48 -35 50 -314 16 l-259 -31 -359 101 c-343 95 -488
125 -593 121 -15 -1 -94 -23 -175 -49z"/>
<path d="M26778 19110 c-79 -24 -177 -120 -203 -201 -22 -65 -17 -198 9 -249
25 -48 103 -127 151 -153 55 -30 220 -32 277 -3 153 76 227 254 168 409 -27
71 -100 148 -172 182 -42 20 -68 25 -128 24 -41 0 -87 -4 -102 -9z"/>
</g>
</svg>
