<svg id="svg" version="1.1" xmlns="http://www.w3.org/2000/svg" xmlns:xlink="http://www.w3.org/1999/xlink" width="400" height="533.3333333333334" viewBox="0, 0, 400,533.3333333333334"><g id="svgg"><path id="path0" d="M269.111 288.344 L 266.778 289.305 266.711 290.553 L 266.644 291.802 267.819 291.734 C 268.962 291.669,269.008 291.639,269.524 290.667 C 269.816 290.117,270.393 289.142,270.807 288.500 C 271.221 287.858,271.534 287.345,271.502 287.359 C 271.470 287.373,270.394 287.816,269.111 288.344 M310.349 288.197 C 310.282 288.305,310.364 288.508,310.532 288.647 C 310.805 288.874,311.111 288.581,311.111 288.093 C 311.111 287.914,310.470 288.002,310.349 288.197 M276.889 296.778 L 276.889 298.000 275.111 298.000 L 273.333 298.000 273.333 299.889 L 273.333 301.778 274.046 301.778 C 274.678 301.778,282.784 298.484,283.500 297.936 C 283.655 297.817,283.778 297.245,283.778 296.639 L 283.778 295.556 280.333 295.556 L 276.889 295.556 276.889 296.778 M286.294 307.417 C 283.179 308.293,283.032 308.444,285.296 308.444 L 287.111 308.444 287.111 310.222 L 287.111 312.000 289.000 312.000 L 290.889 312.000 290.889 310.222 L 290.889 308.444 292.556 308.444 C 295.156 308.444,294.798 307.955,291.754 307.348 C 290.396 307.078,289.171 306.826,289.031 306.788 C 288.892 306.750,287.660 307.033,286.294 307.417 M248.000 308.778 L 248.000 310.444 246.222 310.444 L 244.444 310.444 244.444 313.889 L 244.444 317.333 243.000 317.333 L 241.556 317.333 241.556 315.556 L 241.556 313.778 239.667 313.778 L 237.778 313.778 237.778 315.556 L 237.778 317.333 236.000 317.333 L 234.222 317.333 234.222 319.111 L 234.222 320.889 236.000 320.889 L 237.778 320.889 237.778 322.333 L 237.778 323.778 234.444 323.778 L 231.111 323.778 231.111 325.444 L 231.111 327.111 229.333 327.111 L 227.556 327.111 227.556 329.111 L 227.556 331.111 229.279 331.111 L 231.002 331.111 232.668 329.860 C 237.705 326.076,238.000 325.792,238.000 324.742 L 238.000 323.778 239.167 323.775 C 240.298 323.772,240.398 323.719,242.500 321.972 L 244.667 320.171 244.667 318.733 L 244.667 317.295 246.433 317.362 L 248.199 317.429 250.933 315.311 C 252.436 314.146,253.992 313.003,254.389 312.771 C 255.026 312.399,255.111 312.236,255.111 311.397 L 255.111 310.444 253.444 310.444 L 251.778 310.444 251.778 308.778 L 251.778 307.111 249.889 307.111 L 248.000 307.111 248.000 308.778 M259.611 319.554 L 255.111 321.745 255.111 322.762 L 255.111 323.778 258.444 323.778 L 261.778 323.778 261.778 325.333 L 261.778 326.889 260.222 326.889 L 258.667 326.889 258.667 329.000 L 258.667 331.111 260.232 331.111 L 261.797 331.111 261.732 332.722 L 261.667 334.333 258.395 334.395 L 255.123 334.456 255.062 337.617 L 255.000 340.778 253.444 340.778 L 251.889 340.778 251.824 339.167 L 251.758 337.556 249.768 337.556 L 247.778 337.556 247.778 339.222 L 247.778 340.889 246.222 340.889 L 244.667 340.889 244.667 337.556 L 244.667 334.222 241.352 334.222 C 239.509 334.222,238.004 334.130,237.963 334.016 C 237.922 333.902,237.695 333.952,237.458 334.127 C 237.082 334.403,237.075 334.444,237.402 334.444 C 237.716 334.444,237.778 334.681,237.778 335.889 L 237.778 337.333 236.000 337.333 L 234.222 337.333 234.222 339.111 L 234.222 340.889 236.000 340.889 L 237.778 340.889 237.778 342.667 L 237.778 344.444 239.667 344.444 L 241.556 344.444 241.556 342.667 L 241.556 340.889 243.000 340.889 L 244.444 340.889 244.444 344.333 L 244.444 347.778 246.222 347.778 L 248.000 347.778 248.000 349.444 L 248.000 351.111 249.889 351.111 L 251.778 351.111 251.778 349.444 L 251.778 347.778 253.444 347.778 L 255.111 347.778 255.111 344.468 C 255.111 340.715,255.019 340.889,257.018 340.889 L 258.222 340.889 258.222 342.667 L 258.222 344.444 260.000 344.444 L 261.778 344.444 261.778 342.667 L 261.778 340.889 263.556 340.889 L 265.333 340.889 265.333 339.111 L 265.333 337.333 263.556 337.333 L 261.778 337.333 261.778 335.889 L 261.778 334.444 265.222 334.444 L 268.667 334.444 268.667 332.778 L 268.667 331.111 270.333 331.111 L 272.000 331.111 272.000 329.111 L 272.000 327.111 270.333 327.111 L 268.667 327.111 268.667 325.444 L 268.667 323.778 265.222 323.778 L 261.778 323.778 261.778 322.333 L 261.778 320.889 263.556 320.889 L 265.333 320.889 265.333 319.111 L 265.333 317.333 264.722 317.348 C 264.386 317.356,262.086 318.349,259.611 319.554 M302.667 321.444 L 302.667 323.333 304.444 323.333 L 306.222 323.333 306.222 325.111 L 306.222 326.889 309.130 326.889 C 310.918 326.889,312.009 326.806,311.963 326.673 C 311.922 326.554,310.406 324.904,308.594 323.006 L 305.300 319.556 303.983 319.556 L 302.667 319.556 302.667 321.444 M312.889 328.778 L 312.889 329.778 311.222 329.778 L 309.556 329.778 309.556 331.556 L 309.556 333.333 311.222 333.333 L 312.889 333.333 312.889 335.111 L 312.889 336.889 314.889 336.889 L 316.889 336.889 316.889 335.111 C 316.889 333.481,316.926 333.333,317.333 333.333 C 318.188 333.333,317.769 332.603,315.531 330.196 C 312.983 327.454,312.889 327.404,312.889 328.778 M191.084 329.399 C 190.261 330.057,188.939 330.838,188.084 331.173 L 186.556 331.772 186.628 333.553 L 186.701 335.333 188.684 335.333 L 190.667 335.333 190.667 333.667 L 190.667 332.000 192.333 332.000 L 194.000 332.000 194.000 330.111 L 194.000 328.222 193.278 328.223 C 192.741 328.224,192.178 328.526,191.084 329.399 M177.778 331.965 C 176.671 332.522,175.747 333.154,175.865 333.273 C 175.970 333.378,178.889 331.809,178.889 331.648 C 178.889 331.477,178.560 331.571,177.778 331.965 M178.333 334.956 L 173.222 337.010 173.153 337.838 L 173.084 338.667 174.875 338.667 L 176.667 338.667 176.667 340.444 L 176.667 342.222 178.556 342.222 L 180.444 342.222 180.444 340.444 L 180.444 338.667 182.111 338.667 L 183.778 338.667 183.778 335.778 C 183.778 334.189,183.703 332.892,183.611 332.895 C 183.519 332.898,181.144 333.826,178.333 334.956 M322.401 335.556 C 323.239 336.726,324.774 338.485,324.534 338.000 C 324.287 337.502,323.055 335.699,322.787 335.444 C 321.926 334.625,321.768 334.671,322.401 335.556 M281.333 340.111 L 281.333 341.778 279.556 341.778 L 277.778 341.778 277.778 345.222 L 277.778 348.667 276.333 348.667 L 274.889 348.667 274.889 347.000 L 274.889 345.333 273.000 345.333 L 271.111 345.333 271.111 347.000 L 271.111 348.667 269.333 348.667 L 267.556 348.667 267.556 350.556 L 267.556 352.444 269.333 352.444 L 271.111 352.444 271.111 353.778 L 271.111 355.111 267.778 355.111 L 264.444 355.111 264.444 356.889 L 264.444 358.667 262.667 358.667 L 260.889 358.667 260.889 360.556 L 260.889 362.444 262.667 362.444 L 264.444 362.444 264.444 364.111 L 264.444 365.778 267.778 365.778 L 271.111 365.778 271.111 367.222 L 271.111 368.667 269.333 368.667 L 267.556 368.667 267.556 370.556 L 267.556 372.444 269.333 372.444 L 271.111 372.444 271.111 374.111 L 271.111 375.778 273.000 375.778 L 274.889 375.778 274.889 374.111 L 274.889 372.444 276.333 372.444 L 277.778 372.444 277.778 375.778 L 277.778 379.111 279.556 379.111 L 281.333 379.111 281.333 380.889 L 281.333 382.667 283.222 382.667 L 285.111 382.667 285.111 380.889 L 285.111 379.111 286.778 379.111 L 288.444 379.111 288.444 375.778 L 288.444 372.444 290.000 372.444 L 291.556 372.444 291.556 374.111 L 291.556 375.778 292.724 375.778 C 293.652 375.778,293.950 375.686,294.171 375.333 C 294.323 375.089,294.597 374.889,294.780 374.889 C 295.033 374.889,295.111 374.602,295.111 373.667 L 295.111 372.444 296.103 372.444 C 296.868 372.444,297.150 372.343,297.333 372.000 C 297.472 371.740,297.799 371.556,298.119 371.556 C 298.645 371.556,298.667 371.498,298.667 370.111 L 298.667 368.667 296.889 368.667 L 295.111 368.667 295.111 367.222 L 295.111 365.778 298.556 365.778 L 302.000 365.778 302.000 364.111 L 302.000 362.444 303.667 362.444 L 305.333 362.444 305.333 360.556 L 305.333 358.667 303.667 358.667 L 302.000 358.667 302.000 356.889 L 302.000 355.111 298.556 355.111 L 295.111 355.111 295.111 353.778 L 295.111 352.444 296.889 352.444 L 298.667 352.444 298.667 350.556 L 298.667 348.667 296.889 348.667 L 295.111 348.667 295.111 347.000 L 295.111 345.333 293.333 345.333 L 291.556 345.333 291.556 347.010 L 291.556 348.687 290.056 348.621 L 288.556 348.556 288.494 345.167 L 288.433 341.778 286.772 341.778 L 285.111 341.778 285.111 340.111 L 285.111 338.444 283.222 338.444 L 281.333 338.444 281.333 340.111 M221.572 343.304 C 220.664 343.884,219.841 344.502,219.743 344.679 C 219.570 344.990,217.333 351.689,217.333 351.897 C 217.333 351.953,217.983 352.000,218.778 352.000 L 220.222 352.000 220.222 350.333 L 220.222 348.667 221.889 348.667 L 223.556 348.667 223.556 351.889 L 223.556 355.111 226.889 355.111 L 230.222 355.111 230.222 356.778 L 230.222 358.444 228.667 358.444 L 227.111 358.444 227.111 360.444 L 227.111 362.444 228.667 362.444 L 230.222 362.444 230.222 364.111 L 230.222 365.778 226.889 365.778 L 223.556 365.778 223.556 368.164 L 223.556 370.551 224.585 368.998 C 226.380 366.288,226.596 366.409,226.190 369.898 C 225.973 371.766,225.970 372.323,226.177 372.392 C 226.353 372.451,226.444 373.044,226.444 374.130 L 226.444 375.778 228.333 375.778 L 230.222 375.778 230.222 374.111 L 230.222 372.444 232.000 372.444 L 233.778 372.444 233.778 370.556 L 233.778 368.667 232.000 368.667 L 230.222 368.667 230.222 367.222 L 230.222 365.778 233.667 365.778 L 237.111 365.778 237.111 364.111 L 237.111 362.444 238.778 362.444 L 240.444 362.444 240.444 360.556 L 240.444 358.667 238.778 358.667 L 237.111 358.667 237.111 356.889 L 237.111 355.111 233.667 355.111 L 230.222 355.111 230.222 353.778 L 230.222 352.444 232.000 352.444 L 233.778 352.444 233.778 350.556 L 233.778 348.667 232.000 348.667 L 230.222 348.667 230.222 347.000 L 230.222 345.333 228.333 345.333 L 226.444 345.333 226.444 347.011 L 226.444 348.688 225.056 348.622 L 223.667 348.556 223.605 345.389 C 223.571 343.647,223.471 342.228,223.383 342.236 C 223.294 342.244,222.480 342.724,221.572 343.304 M157.848 345.765 C 156.113 346.553,152.015 352.667,153.222 352.667 C 153.489 352.667,153.556 353.000,153.556 354.333 L 153.556 356.000 152.671 356.000 C 151.578 356.000,151.614 355.860,151.457 360.667 C 151.391 362.683,151.275 364.708,151.200 365.167 L 151.062 366.000 152.420 366.000 L 153.778 366.000 153.778 364.333 L 153.778 362.667 155.556 362.667 L 157.333 362.667 157.333 360.778 L 157.333 358.889 155.556 358.889 L 153.778 358.889 153.778 357.444 L 153.778 356.000 157.111 356.000 L 160.444 356.000 160.444 354.333 L 160.444 352.667 162.222 352.667 L 164.000 352.667 164.000 350.778 L 164.000 348.889 162.222 348.889 L 160.444 348.889 160.444 347.111 L 160.444 345.333 159.611 345.338 C 159.153 345.341,158.359 345.533,157.848 345.765 M206.222 347.000 L 206.222 348.667 204.444 348.667 L 202.667 348.667 202.667 350.556 L 202.667 352.444 204.414 352.444 L 206.162 352.444 207.861 349.056 C 209.910 344.970,209.908 345.333,207.889 345.333 L 206.222 345.333 206.222 347.000 M281.288 350.389 L 281.353 352.000 283.232 352.000 L 285.111 352.000 285.111 350.333 L 285.111 348.667 286.778 348.667 L 288.444 348.667 288.444 351.889 L 288.444 355.111 291.778 355.111 L 295.111 355.111 295.111 356.778 L 295.111 358.444 293.556 358.444 L 292.000 358.444 292.000 360.444 L 292.000 362.444 293.556 362.444 L 295.111 362.444 295.111 364.111 L 295.111 365.778 291.778 365.778 L 288.444 365.778 288.444 369.000 L 288.444 372.222 286.778 372.222 L 285.111 372.222 285.111 370.556 L 285.111 368.889 283.111 368.889 L 281.111 368.889 281.111 370.556 L 281.111 372.222 279.556 372.222 L 278.000 372.222 278.000 369.000 L 278.000 365.778 274.546 365.778 L 271.092 365.778 271.157 364.167 L 271.222 362.556 272.921 362.491 C 274.890 362.416,274.881 362.428,274.886 359.953 L 274.889 358.462 273.056 358.398 L 271.222 358.333 271.222 356.778 L 271.222 355.222 274.611 355.161 L 278.000 355.100 278.000 351.873 L 278.000 348.647 279.611 348.712 L 281.222 348.778 281.288 350.389 M199.556 356.889 L 199.556 358.667 197.778 358.667 L 196.000 358.667 196.000 360.447 L 196.000 362.228 196.944 361.627 C 197.464 361.296,198.558 360.611,199.377 360.104 C 201.006 359.094,204.666 355.832,204.666 355.389 C 204.667 355.183,204.008 355.111,202.111 355.111 L 199.556 355.111 199.556 356.889 M206.222 367.222 L 206.222 368.667 204.444 368.667 L 202.667 368.667 202.667 370.556 L 202.667 372.444 204.444 372.444 L 206.222 372.444 206.222 374.111 L 206.222 375.778 208.111 375.778 L 210.000 375.778 210.000 374.111 L 210.000 372.444 211.444 372.444 L 212.889 372.444 212.889 375.778 L 212.889 379.111 214.667 379.111 L 216.444 379.111 216.444 380.889 L 216.444 382.667 217.431 382.667 C 218.645 382.667,218.492 382.938,219.564 378.857 C 220.255 376.224,220.656 375.140,221.339 374.049 C 222.445 372.286,222.441 372.222,221.222 372.222 L 220.222 372.222 220.222 370.556 L 220.222 368.889 218.222 368.889 L 216.222 368.889 216.222 370.556 L 216.222 372.222 214.556 372.222 L 212.889 372.222 212.889 369.000 L 212.889 365.778 209.556 365.778 L 206.222 365.778 206.222 367.222 M315.111 370.667 L 315.111 372.444 313.333 372.444 L 311.556 372.444 311.556 375.778 L 311.556 379.111 310.111 379.111 L 308.667 379.111 308.667 377.333 L 308.667 375.556 306.778 375.556 L 304.889 375.556 304.889 377.333 L 304.889 379.111 303.111 379.111 L 301.333 379.111 301.333 381.000 L 301.333 382.889 303.111 382.889 L 304.889 382.889 304.889 384.333 L 304.889 385.778 301.556 385.778 L 298.222 385.778 298.222 387.456 C 298.222 389.130,298.224 389.135,298.906 389.373 C 299.282 389.504,300.057 389.848,300.628 390.138 C 301.764 390.714,302.903 390.787,306.633 390.522 L 308.667 390.378 308.667 389.642 L 308.667 388.907 306.833 388.842 L 305.000 388.778 304.934 387.284 L 304.869 385.789 308.268 385.728 L 311.667 385.667 311.728 382.379 L 311.790 379.092 313.395 379.157 L 315.000 379.222 315.111 380.325 L 315.222 381.429 317.944 377.066 C 321.079 372.042,320.919 372.444,319.778 372.444 L 318.889 372.444 318.889 370.667 L 318.889 368.889 317.000 368.889 L 315.111 368.889 315.111 370.667 M248.000 373.000 L 248.000 374.667 246.222 374.667 L 244.444 374.667 244.444 378.000 L 244.444 381.333 243.000 381.333 L 241.556 381.333 241.556 379.556 L 241.556 377.778 239.667 377.778 L 237.778 377.778 237.778 379.546 L 237.778 381.315 236.056 381.380 L 234.333 381.444 234.268 383.167 L 234.204 384.889 235.991 384.889 L 237.778 384.889 237.778 386.333 L 237.778 387.778 234.444 387.778 L 231.111 387.778 231.111 389.478 L 231.111 391.179 233.479 391.034 C 234.781 390.954,236.281 390.889,236.812 390.889 L 237.778 390.889 237.778 389.444 L 237.778 388.000 240.871 388.000 C 244.274 388.000,244.667 387.929,244.667 387.310 C 244.667 386.919,244.466 386.889,241.882 386.889 C 239.534 386.889,239.076 386.833,238.961 386.533 C 238.775 386.049,238.967 385.958,242.013 385.090 L 244.666 384.333 244.666 382.824 L 244.667 381.314 246.278 381.379 L 247.889 381.444 247.958 382.400 C 248.014 383.178,248.096 383.333,248.402 383.239 C 248.609 383.176,249.441 382.920,250.252 382.672 C 251.315 382.346,251.759 382.097,251.842 381.777 C 252.027 381.072,255.111 381.106,255.111 381.812 C 255.111 382.285,255.147 382.289,257.944 382.146 C 259.503 382.067,261.803 382.001,263.056 382.001 C 264.932 382.000,265.333 381.941,265.333 381.667 C 265.333 381.398,264.988 381.333,263.556 381.333 L 261.778 381.333 261.778 379.556 L 261.778 377.778 260.000 377.778 L 258.222 377.778 258.222 379.556 L 258.222 381.333 257.018 381.333 C 255.023 381.333,255.111 381.493,255.111 377.865 L 255.111 374.667 253.444 374.667 L 251.778 374.667 251.778 373.000 L 251.778 371.333 249.889 371.333 L 248.000 371.333 248.000 373.000 M186.201 372.770 C 184.240 373.492,184.000 373.711,184.000 374.774 L 184.000 375.759 182.278 375.824 L 180.556 375.889 180.494 379.167 L 180.433 382.444 179.105 382.444 L 177.778 382.444 177.778 380.778 L 177.778 379.111 176.588 379.111 C 174.752 379.111,173.909 379.774,173.822 381.285 L 173.755 382.444 171.962 382.444 L 170.169 382.444 170.803 383.278 C 172.531 385.550,173.139 386.222,173.464 386.222 C 173.637 386.222,173.778 386.429,173.778 386.682 C 173.778 386.935,174.083 387.585,174.455 388.127 L 175.132 389.111 177.900 389.111 L 180.667 389.111 180.667 385.889 L 180.667 382.667 182.333 382.667 L 184.000 382.667 184.000 384.333 L 184.000 386.000 186.000 386.000 L 188.000 386.000 188.000 384.333 L 188.000 382.667 189.556 382.667 L 191.111 382.667 191.111 385.889 L 191.111 389.111 194.556 389.111 L 198.000 389.111 198.000 390.228 L 198.000 391.345 201.278 391.284 L 204.556 391.222 204.623 390.167 L 204.691 389.111 201.346 389.111 L 198.000 389.111 198.000 387.667 L 198.000 386.222 199.778 386.222 L 201.556 386.222 201.556 384.333 L 201.556 382.444 199.778 382.444 L 198.000 382.444 198.000 380.778 L 198.000 379.111 196.111 379.111 L 194.222 379.111 194.222 380.778 L 194.222 382.444 192.902 382.444 C 191.210 382.444,191.226 382.481,191.265 378.833 L 191.297 375.778 189.649 375.778 L 188.000 375.778 188.000 374.111 C 188.000 372.236,187.885 372.150,186.201 372.770 M255.111 387.333 C 255.111 387.758,255.259 387.778,258.444 387.778 L 261.778 387.778 261.778 389.364 L 261.778 390.949 262.809 390.808 C 263.376 390.730,264.926 390.667,266.253 390.667 L 268.667 390.667 268.667 389.222 L 268.667 387.778 265.222 387.778 C 261.926 387.778,261.778 387.759,261.778 387.333 C 261.778 386.909,261.630 386.889,258.444 386.889 C 255.259 386.889,255.111 386.909,255.111 387.333 M167.111 390.222 L 167.111 391.333 170.556 391.333 C 174.436 391.333,174.512 391.287,172.722 390.018 L 171.444 389.111 169.278 389.111 L 167.111 389.111 167.111 390.222 M163.667 394.222 C 163.489 394.510,164.888 394.510,165.333 394.222 C 165.578 394.064,165.419 394.006,164.735 394.003 C 164.223 394.002,163.742 394.100,163.667 394.222 " stroke="none" fill="#fb0404" fill-rule="evenodd"></path><path id="path1" d="M232.778 170.231 C 231.752 170.392,229.028 171.086,226.333 171.870 C 225.722 172.048,224.481 172.405,223.576 172.663 C 222.670 172.921,221.520 173.319,221.020 173.546 C 220.520 173.774,219.061 174.378,217.778 174.888 C 216.494 175.399,214.916 176.058,214.271 176.353 C 213.626 176.648,213.035 176.889,212.958 176.889 C 212.740 176.889,206.805 179.148,206.556 179.326 C 206.433 179.413,205.233 179.917,203.889 180.444 C 202.544 180.972,201.344 181.475,201.222 181.561 C 201.100 181.647,200.575 181.782,200.056 181.861 C 199.013 182.020,197.215 182.561,196.614 182.896 C 196.402 183.014,196.102 183.112,195.947 183.114 C 193.647 183.137,188.000 188.278,188.000 190.349 C 188.000 190.434,187.822 190.665,187.605 190.863 C 187.387 191.060,186.863 191.672,186.439 192.222 C 186.015 192.772,185.449 193.445,185.182 193.717 C 184.915 193.989,184.416 194.589,184.072 195.050 C 183.728 195.512,183.396 195.939,183.333 196.000 C 183.152 196.177,181.938 197.816,181.363 198.659 C 180.767 199.532,177.788 202.473,176.778 203.185 C 176.411 203.443,175.911 203.843,175.667 204.073 C 175.422 204.304,174.622 204.783,173.889 205.138 C 171.961 206.072,169.033 208.468,167.867 210.066 C 167.314 210.824,166.592 211.783,166.264 212.197 C 165.935 212.610,165.575 213.110,165.463 213.308 C 165.352 213.505,165.202 213.717,165.130 213.778 C 164.978 213.907,164.555 214.638,163.906 215.889 C 163.652 216.378,163.341 216.888,163.215 217.023 C 163.089 217.158,162.804 217.708,162.581 218.245 C 162.359 218.783,162.087 219.396,161.977 219.608 C 161.868 219.820,161.778 220.175,161.778 220.397 C 161.778 220.619,161.679 220.899,161.559 221.019 C 161.113 221.465,160.444 224.757,160.444 226.503 C 160.444 230.431,161.910 233.519,164.667 235.399 C 165.217 235.775,165.717 236.140,165.778 236.211 C 165.839 236.282,166.575 236.935,167.414 237.664 C 168.253 238.392,169.330 239.563,169.808 240.266 C 170.285 240.969,170.866 241.647,171.098 241.771 C 171.331 241.895,171.656 242.123,171.821 242.276 C 175.519 245.712,177.195 246.667,179.531 246.667 C 179.731 246.667,180.061 246.892,180.264 247.167 C 180.467 247.442,181.546 248.917,182.661 250.444 C 183.777 251.972,184.811 253.372,184.959 253.556 C 185.107 253.739,185.472 254.239,185.770 254.667 C 186.068 255.094,186.372 255.494,186.444 255.556 C 186.517 255.617,186.817 256.017,187.111 256.444 C 187.405 256.872,187.701 257.272,187.769 257.333 C 189.129 258.558,190.222 260.765,190.220 262.282 C 190.219 263.166,190.316 265.339,190.436 267.111 C 191.150 277.662,191.145 277.615,191.667 278.771 C 191.945 279.386,192.384 280.359,192.643 280.935 C 192.998 281.723,193.318 282.071,193.945 282.351 C 194.403 282.555,195.423 283.022,196.212 283.389 C 197.513 283.995,197.718 284.032,198.434 283.787 C 199.819 283.314,200.985 282.721,201.515 282.220 C 201.798 281.952,202.055 281.768,202.087 281.811 C 202.348 282.161,203.173 284.227,203.549 285.472 C 203.803 286.313,204.097 287.268,204.203 287.596 C 204.336 288.010,204.277 288.554,204.009 289.374 C 203.259 291.674,203.259 291.693,204.073 292.607 C 205.314 293.998,205.275 294.184,203.362 296.054 C 202.430 296.966,201.367 297.916,201.000 298.167 C 200.633 298.417,200.034 299.207,199.668 299.922 C 199.302 300.637,198.952 301.272,198.890 301.333 C 198.828 301.394,198.563 301.844,198.300 302.333 C 197.338 304.122,196.837 305.005,196.658 305.227 C 196.485 305.441,196.197 306.438,195.105 310.611 C 194.678 312.242,194.407 313.097,193.998 314.111 C 193.524 315.284,192.590 317.767,192.296 318.631 C 192.116 319.162,191.738 320.012,191.456 320.520 C 191.175 321.029,190.423 322.444,189.786 323.667 C 188.453 326.225,188.377 326.330,187.588 326.741 C 185.630 327.761,184.992 328.130,184.926 328.278 C 184.885 328.369,184.770 328.444,184.670 328.444 C 184.387 328.444,179.757 331.127,178.889 331.795 C 177.787 332.642,173.557 334.928,172.972 334.992 C 172.703 335.022,171.699 335.351,170.741 335.725 C 169.784 336.099,167.626 336.938,165.947 337.591 C 164.268 338.244,162.618 339.028,162.281 339.334 C 161.943 339.641,160.317 341.059,158.667 342.486 C 153.710 346.773,151.243 349.413,150.708 351.000 C 149.254 355.317,148.745 357.360,148.438 360.111 C 148.239 361.902,148.003 363.730,147.550 367.000 C 147.415 367.978,147.236 369.478,147.152 370.333 C 146.977 372.128,147.072 372.089,144.111 371.568 C 143.256 371.418,142.006 371.203,141.333 371.091 C 140.661 370.979,139.611 370.801,139.000 370.696 C 138.389 370.591,136.835 370.326,135.546 370.108 L 133.203 369.712 131.546 366.945 C 130.185 364.674,129.723 364.086,128.964 363.659 C 128.456 363.374,127.371 362.734,126.553 362.237 C 125.735 361.740,125.028 361.333,124.983 361.333 C 124.937 361.333,123.895 360.733,122.667 360.000 C 121.439 359.267,120.377 358.667,120.307 358.667 C 120.237 358.667,119.914 358.482,119.590 358.256 C 119.265 358.030,118.450 357.545,117.778 357.178 C 117.106 356.810,116.026 356.195,115.379 355.810 C 114.732 355.426,114.107 355.111,113.990 355.111 C 113.873 355.111,113.778 355.011,113.778 354.889 C 113.778 354.767,113.682 354.667,113.565 354.667 C 113.448 354.667,112.823 354.353,112.176 353.969 C 111.529 353.585,110.675 353.085,110.278 352.858 C 109.881 352.630,109.231 352.258,108.833 352.031 C 108.436 351.804,107.582 351.304,106.935 350.920 C 106.288 350.536,105.723 350.222,105.680 350.222 C 105.636 350.222,104.943 349.822,104.138 349.333 C 103.333 348.844,102.573 348.444,102.448 348.444 C 102.324 348.444,102.222 348.344,102.222 348.222 C 102.222 348.100,102.127 348.000,102.010 348.000 C 101.893 348.000,101.268 347.686,100.621 347.302 C 99.974 346.919,99.119 346.419,98.722 346.191 C 98.325 345.964,97.675 345.592,97.278 345.364 C 96.881 345.137,96.026 344.637,95.379 344.253 C 94.732 343.870,94.167 343.556,94.124 343.556 C 94.081 343.556,93.387 343.156,92.582 342.667 C 91.778 342.178,91.017 341.778,90.893 341.778 C 90.768 341.778,90.667 341.678,90.667 341.556 C 90.667 341.433,90.571 341.333,90.454 341.333 C 90.337 341.333,89.712 341.019,89.065 340.636 C 88.418 340.252,87.564 339.752,87.167 339.525 C 86.769 339.297,86.119 338.925,85.722 338.698 C 85.325 338.470,84.471 337.970,83.824 337.587 C 83.177 337.203,82.612 336.889,82.568 336.889 C 82.525 336.889,81.831 336.489,81.027 336.000 C 80.222 335.511,79.462 335.111,79.337 335.111 C 79.213 335.111,79.111 335.011,79.111 334.889 C 79.111 334.767,79.016 334.667,78.899 334.667 C 78.782 334.667,78.157 334.353,77.510 333.969 C 76.863 333.585,76.008 333.085,75.611 332.858 C 75.214 332.630,74.564 332.258,74.167 332.031 C 73.769 331.804,72.915 331.304,72.268 330.920 C 71.621 330.536,71.056 330.222,71.013 330.222 C 70.970 330.222,70.276 329.822,69.471 329.333 C 68.666 328.844,67.906 328.444,67.782 328.444 C 67.657 328.444,67.556 328.344,67.556 328.222 C 67.556 327.661,66.831 328.110,65.851 329.278 C 65.261 329.981,64.527 330.806,64.222 331.111 C 63.916 331.417,63.402 332.017,63.080 332.444 C 62.758 332.872,62.283 333.463,62.025 333.756 C 61.767 334.050,61.556 334.351,61.556 334.425 C 61.556 334.499,61.329 334.809,61.053 335.113 C 60.776 335.418,59.503 337.017,58.223 338.667 C 56.943 340.317,55.769 341.799,55.615 341.960 C 55.460 342.122,55.333 342.323,55.333 342.407 C 55.333 342.491,55.108 342.812,54.833 343.121 C 54.558 343.429,53.985 344.128,53.559 344.674 C 53.133 345.220,52.662 345.817,52.513 346.000 C 52.365 346.183,51.734 346.983,51.111 347.778 C 50.489 348.572,49.858 349.372,49.709 349.556 C 49.560 349.739,49.192 350.239,48.892 350.667 C 48.591 351.094,48.159 351.644,47.932 351.889 C 47.705 352.133,47.072 352.933,46.526 353.667 C 45.980 354.400,45.288 355.300,44.988 355.667 C 44.008 356.864,43.673 357.288,43.222 357.905 C 42.734 358.573,39.291 362.958,38.699 363.667 C 38.494 363.911,38.083 364.461,37.785 364.889 C 37.487 365.317,37.186 365.717,37.116 365.778 C 37.046 365.839,36.644 366.339,36.222 366.889 C 35.801 367.439,35.403 367.939,35.339 368.000 C 35.275 368.061,34.747 368.728,34.167 369.481 L 33.111 370.851 33.124 374.592 C 33.132 376.650,33.232 378.833,33.348 379.444 C 33.463 380.056,33.649 381.192,33.760 381.971 C 33.993 383.590,34.023 383.634,35.222 384.069 C 36.663 384.592,39.438 385.875,39.519 386.056 C 39.559 386.147,39.736 386.222,39.910 386.222 C 40.085 386.222,40.402 386.325,40.614 386.450 C 41.214 386.803,46.493 388.889,46.788 388.889 C 46.933 388.889,47.303 389.087,47.611 389.329 C 47.918 389.571,49.357 390.206,50.807 390.740 C 52.258 391.274,54.344 392.153,55.444 392.694 C 56.544 393.235,57.894 393.818,58.444 393.990 C 58.994 394.162,59.544 394.373,59.667 394.459 C 59.789 394.545,68.739 394.533,79.556 394.432 C 107.317 394.172,133.278 394.175,133.440 394.437 C 133.519 394.565,134.394 394.598,135.619 394.520 C 137.172 394.420,155.883 394.099,164.889 394.017 C 165.439 394.012,175.539 394.001,187.333 393.992 C 212.366 393.973,258.430 393.798,258.636 393.720 C 258.714 393.691,263.478 393.717,269.222 393.778 C 274.967 393.839,289.967 393.816,302.556 393.726 C 324.926 393.567,327.036 393.604,331.889 394.240 C 335.479 394.711,338.100 394.864,338.257 394.610 C 338.622 394.020,338.703 389.885,338.631 375.444 L 338.556 360.111 337.523 358.000 C 334.586 351.994,333.333 349.342,333.333 349.127 C 333.333 348.996,333.255 348.889,333.159 348.889 C 333.063 348.889,332.819 348.614,332.616 348.278 C 332.413 347.942,332.017 347.413,331.735 347.104 C 331.453 346.794,330.874 346.094,330.448 345.548 C 330.021 345.002,329.551 344.406,329.402 344.222 C 329.253 344.039,328.623 343.239,328.001 342.444 C 327.380 341.650,326.625 340.700,326.325 340.333 C 326.024 339.967,325.571 339.392,325.318 339.056 C 325.064 338.719,324.739 338.440,324.595 338.435 C 324.297 338.424,321.556 334.875,321.556 334.499 C 321.556 334.364,321.429 334.122,321.275 333.960 C 321.120 333.799,320.648 333.217,320.225 332.667 C 319.802 332.117,319.398 331.617,319.326 331.556 C 319.145 331.400,318.848 330.558,317.754 327.111 C 317.230 325.461,316.747 324.061,316.679 324.000 C 316.611 323.939,316.431 323.664,316.278 323.389 C 316.125 323.114,315.875 322.664,315.722 322.389 C 315.569 322.114,315.387 321.839,315.317 321.778 C 315.247 321.717,314.947 321.217,314.650 320.667 C 314.354 320.117,314.061 319.617,314.000 319.556 C 313.664 319.221,313.270 318.113,312.656 315.778 C 312.511 315.228,312.316 314.528,312.222 314.222 C 312.055 313.680,311.821 312.795,311.368 311.000 C 311.244 310.511,311.043 309.561,310.921 308.889 C 310.044 304.069,310.301 304.645,308.235 302.885 C 307.448 302.215,306.448 301.332,306.013 300.924 C 305.578 300.515,304.872 299.916,304.444 299.593 C 304.017 299.269,303.517 298.851,303.333 298.663 C 303.150 298.475,302.550 297.976,302.000 297.555 C 300.665 296.532,300.626 296.453,301.100 295.673 C 301.325 295.303,301.574 294.450,301.654 293.778 C 301.733 293.106,301.898 292.103,302.020 291.550 C 302.229 290.604,302.189 290.442,301.328 288.773 C 300.825 287.798,300.278 286.500,300.111 285.889 C 299.945 285.278,299.600 284.028,299.346 283.111 C 299.091 282.194,298.774 280.944,298.641 280.333 C 298.508 279.722,298.320 278.872,298.224 278.444 C 297.901 277.017,297.058 273.008,296.941 272.344 C 296.773 271.390,291.671 266.330,290.512 265.968 L 289.662 265.703 289.731 263.240 C 289.793 261.031,290.102 257.234,290.662 251.778 C 290.769 250.739,290.975 248.711,291.119 247.271 C 291.491 243.548,291.264 215.070,290.848 213.333 C 290.687 212.661,290.181 211.326,289.722 210.366 C 289.264 209.406,288.889 208.530,288.889 208.418 C 288.889 208.307,288.788 208.043,288.664 207.830 C 288.256 207.131,287.111 204.168,287.108 203.803 C 287.102 203.101,286.028 200.471,285.555 200.000 C 285.393 199.838,284.974 198.895,284.667 198.000 C 284.359 197.105,283.940 196.162,283.778 196.000 C 283.717 195.939,283.327 195.239,282.912 194.444 C 282.497 193.650,282.097 192.950,282.022 192.889 C 281.826 192.728,280.484 190.531,279.715 189.111 C 279.350 188.439,278.925 187.656,278.771 187.372 C 278.439 186.760,275.536 183.514,273.768 181.778 C 272.805 180.832,272.100 180.385,270.651 179.800 C 269.621 179.385,268.078 178.718,267.222 178.317 C 265.153 177.348,261.804 176.247,256.222 174.698 C 255.794 174.580,253.694 173.966,251.556 173.336 C 246.707 171.906,244.860 171.394,243.444 171.086 C 242.833 170.953,241.933 170.754,241.444 170.644 C 238.504 169.981,235.323 169.829,232.778 170.231 M258.889 233.548 C 259.439 233.658,260.589 233.875,261.444 234.030 C 263.044 234.320,263.246 234.454,264.414 235.996 C 265.274 237.130,265.779 237.731,266.831 238.869 C 267.349 239.430,267.816 240.039,267.869 240.222 C 268.988 244.126,269.186 244.717,269.932 246.382 C 270.913 248.572,270.874 249.357,269.648 252.167 C 269.475 252.564,269.192 253.214,269.018 253.611 C 268.845 254.008,268.530 254.783,268.319 255.333 C 268.108 255.883,267.720 256.533,267.457 256.778 C 267.008 257.194,266.768 257.351,265.500 258.056 C 265.225 258.208,264.950 258.392,264.889 258.463 C 264.828 258.535,264.616 258.685,264.419 258.797 C 264.055 259.003,262.877 259.922,261.808 260.833 C 261.486 261.108,261.147 261.333,261.056 261.333 C 260.762 261.334,260.877 262.232,261.186 262.350 C 261.349 262.413,261.924 262.324,262.463 262.153 C 263.003 261.982,263.894 261.714,264.444 261.558 C 264.994 261.402,265.994 261.101,266.667 260.889 C 267.339 260.677,268.339 260.378,268.889 260.223 C 269.439 260.068,270.431 259.759,271.093 259.535 C 272.342 259.112,272.858 259.289,272.882 260.148 C 272.886 260.291,272.985 260.441,273.103 260.481 C 273.240 260.529,273.242 262.715,273.109 266.556 C 272.763 276.568,272.799 278.444,273.338 278.444 C 273.812 278.444,273.994 278.117,274.447 276.444 C 274.596 275.894,274.802 275.194,274.905 274.889 C 275.308 273.687,276.733 268.455,277.113 266.778 C 277.251 266.167,277.482 265.217,277.627 264.667 C 277.772 264.112,277.878 262.354,277.866 260.722 C 277.848 258.474,277.909 257.778,278.125 257.778 C 278.281 257.778,278.544 257.726,278.710 257.662 C 278.937 257.575,279.106 258.103,279.400 259.829 C 279.613 261.084,279.988 263.161,280.232 264.444 C 280.476 265.728,280.770 267.328,280.886 268.000 C 281.002 268.672,281.213 269.622,281.356 270.111 C 282.255 273.195,281.873 275.893,280.378 277.016 C 279.742 277.493,279.172 277.939,279.111 278.008 C 279.050 278.076,278.650 278.373,278.222 278.667 C 277.794 278.960,277.394 279.260,277.333 279.333 C 277.272 279.406,276.872 279.706,276.444 280.000 C 276.017 280.294,275.617 280.594,275.556 280.667 C 275.494 280.740,275.094 281.042,274.667 281.338 C 274.239 281.634,273.689 282.065,273.444 282.294 C 273.040 282.674,268.779 284.823,263.333 287.392 C 259.707 289.103,256.872 290.449,254.222 291.718 C 250.250 293.620,249.652 293.820,250.416 292.989 C 250.523 292.873,251.130 291.778,251.766 290.556 C 252.766 288.632,254.405 286.163,254.950 285.761 C 255.115 285.639,255.458 284.768,256.942 280.699 C 258.070 277.604,256.913 277.657,255.245 280.778 C 254.722 281.756,254.028 283.031,253.703 283.611 C 253.377 284.192,252.876 285.092,252.589 285.611 C 251.253 288.028,248.826 291.377,247.201 293.046 C 247.057 293.194,246.011 293.715,244.877 294.204 C 243.743 294.693,242.757 295.173,242.686 295.272 C 242.032 296.172,237.265 299.456,235.944 299.916 C 235.731 299.991,235.556 300.140,235.556 300.248 C 235.556 300.356,235.424 300.444,235.264 300.444 C 235.104 300.444,234.758 300.644,234.496 300.889 C 234.233 301.133,233.954 301.333,233.875 301.333 C 233.796 301.333,233.287 301.633,232.743 302.000 C 232.200 302.367,231.619 302.667,231.452 302.667 C 231.285 302.667,231.115 302.747,231.074 302.846 C 230.498 304.239,219.520 305.457,216.912 304.418 C 214.259 303.361,212.778 301.954,212.551 300.277 C 212.010 296.279,211.585 295.312,210.012 294.508 C 208.527 293.749,208.000 293.276,208.000 292.704 C 208.000 292.209,207.221 290.865,206.841 290.704 C 206.588 290.596,206.627 289.900,206.944 288.869 L 207.222 287.966 210.261 288.122 C 214.533 288.341,216.715 288.121,216.624 287.481 C 216.486 286.516,215.345 286.245,211.386 286.233 C 206.891 286.220,206.757 286.166,206.110 284.111 C 205.917 283.500,205.504 282.417,205.193 281.705 C 204.881 280.993,204.661 280.384,204.702 280.351 C 205.062 280.065,206.222 279.631,206.222 279.782 C 206.222 279.887,206.122 280.036,206.000 280.111 C 204.930 280.773,206.604 282.711,207.840 282.241 C 209.428 281.637,209.053 279.560,207.354 279.549 L 206.333 279.541 206.944 279.086 C 207.281 278.835,207.556 278.487,207.556 278.312 C 207.556 278.137,207.671 277.770,207.812 277.497 C 208.374 276.410,208.444 276.208,208.444 275.670 C 208.444 274.432,206.930 275.705,206.185 277.567 C 205.987 278.065,205.052 278.222,202.298 278.222 C 199.977 278.222,199.107 278.467,198.606 279.261 C 198.043 280.155,196.245 280.601,195.422 280.052 C 194.287 279.294,193.630 274.645,193.422 265.889 L 193.305 261.000 194.042 260.310 C 197.107 257.438,200.889 255.285,200.889 256.414 C 200.889 256.642,201.169 257.517,201.512 258.358 C 202.114 259.836,202.125 259.934,201.837 261.203 C 201.375 263.235,201.965 263.407,203.333 261.641 C 203.761 261.088,204.297 260.534,204.523 260.409 C 205.234 260.017,207.856 259.115,207.966 259.226 C 208.179 259.438,207.048 261.298,206.642 261.404 C 206.073 261.553,206.114 262.060,206.781 263.116 C 207.369 264.048,207.609 264.138,208.558 263.777 C 210.067 263.203,210.332 261.867,208.889 262.111 C 207.886 262.281,207.834 262.201,208.403 261.368 C 208.872 260.680,209.366 259.121,209.200 258.852 C 209.136 258.750,209.241 258.667,209.431 258.667 C 209.630 258.667,209.778 258.477,209.778 258.222 C 209.778 257.800,209.630 257.778,206.777 257.778 L 203.776 257.778 202.721 256.779 C 202.141 256.230,201.529 255.780,201.360 255.779 C 201.183 255.778,201.417 255.365,201.916 254.799 L 202.778 253.820 204.752 253.799 C 205.838 253.787,207.088 253.871,207.530 253.984 C 210.777 254.819,211.638 254.815,212.434 253.960 C 212.947 253.409,212.780 253.067,211.826 252.712 C 211.494 252.588,209.922 251.989,208.333 251.379 C 206.744 250.770,204.844 250.148,204.111 249.998 C 203.378 249.847,202.428 249.636,202.000 249.530 C 198.699 248.707,195.861 249.524,194.770 251.612 C 193.831 253.407,193.124 254.165,192.159 254.410 L 191.293 254.630 190.757 253.420 C 190.463 252.754,190.222 252.126,190.222 252.024 C 190.222 251.922,189.922 251.111,189.556 250.222 C 188.617 247.946,188.591 248.000,190.614 248.000 L 192.340 248.000 195.222 245.111 C 196.808 243.522,198.231 242.222,198.386 242.222 C 198.540 242.222,198.667 242.122,198.667 242.000 C 198.667 241.878,198.762 241.778,198.879 241.778 C 198.996 241.778,199.621 241.464,200.268 241.080 C 200.915 240.696,201.744 240.209,202.111 239.997 C 202.478 239.785,203.478 239.205,204.333 238.708 C 207.011 237.152,212.853 236.728,215.222 237.918 C 217.113 238.867,217.996 239.159,221.167 239.881 C 221.992 240.069,223.342 240.376,224.167 240.564 C 224.992 240.752,226.017 240.995,226.444 241.105 C 226.872 241.216,227.741 241.437,228.376 241.597 C 229.357 241.845,229.822 242.174,231.487 243.797 C 232.564 244.846,234.094 246.141,234.889 246.675 C 235.683 247.208,236.531 247.829,236.773 248.053 C 237.494 248.722,238.111 248.740,240.048 248.148 C 241.060 247.839,242.652 247.359,243.584 247.082 L 245.279 246.577 245.780 244.900 C 246.055 243.977,246.473 242.572,246.707 241.778 C 247.557 238.902,248.969 236.277,249.429 236.718 C 249.591 236.873,249.950 237.150,250.227 237.333 C 251.040 237.871,252.050 238.972,252.958 240.308 C 254.206 242.147,255.556 242.045,255.556 240.111 C 255.556 239.191,255.330 238.759,253.575 236.316 L 252.817 235.260 253.464 234.724 C 255.166 233.312,255.999 232.938,256.970 233.148 C 257.475 233.257,258.339 233.437,258.889 233.548 M256.889 238.648 C 256.889 238.882,257.203 239.357,257.586 239.703 C 260.734 242.546,261.479 243.869,261.998 247.535 C 262.299 249.662,261.962 251.481,260.986 253.000 C 260.333 254.016,260.031 254.255,257.606 255.678 C 257.386 255.808,257.911 256.445,258.405 256.649 C 258.880 256.845,259.231 256.809,260.146 256.474 C 261.669 255.915,262.607 254.878,263.389 252.889 C 263.509 252.583,263.696 252.160,263.804 251.947 C 264.198 251.173,263.886 248.006,263.316 247.000 C 263.246 246.878,263.062 246.328,262.906 245.778 C 261.634 241.300,260.730 239.577,259.333 238.968 C 258.906 238.782,258.382 238.538,258.170 238.426 C 257.506 238.075,256.889 238.182,256.889 238.648 M253.757 243.039 C 252.748 245.628,252.843 247.103,254.085 248.148 C 254.722 248.685,254.729 248.714,254.597 250.431 C 254.479 251.955,254.514 252.216,254.881 252.549 C 255.819 253.397,257.179 251.889,256.692 250.542 C 256.556 250.165,256.444 249.009,256.444 247.972 C 256.444 246.126,256.428 246.069,255.663 245.234 C 254.871 244.369,254.630 243.797,254.725 243.009 C 254.812 242.287,254.041 242.311,253.757 243.039 M208.889 275.641 C 208.889 277.040,210.417 279.313,211.988 280.252 C 212.667 280.657,213.272 281.046,213.333 281.116 C 213.394 281.186,213.794 281.484,214.222 281.778 C 214.650 282.072,215.050 282.371,215.111 282.443 C 216.682 284.300,218.564 284.914,218.293 283.481 C 218.028 282.083,217.886 281.922,215.000 279.732 C 213.100 278.291,211.269 276.761,210.566 276.028 C 209.563 274.981,208.889 274.826,208.889 275.641 M271.082 288.389 C 268.879 291.902,268.612 292.474,268.739 293.416 C 268.869 294.391,269.613 295.222,270.164 295.010 C 270.337 294.944,270.634 295.047,270.826 295.239 C 271.130 295.542,271.991 295.578,277.532 295.516 L 283.889 295.444 283.889 296.667 L 283.889 297.889 282.778 298.450 C 280.826 299.436,275.224 301.778,274.816 301.778 C 274.600 301.778,274.010 301.977,273.506 302.221 C 272.427 302.742,272.477 302.770,272.266 301.531 L 272.100 300.556 270.729 300.490 L 269.357 300.424 269.222 299.379 C 268.934 297.153,269.066 297.289,267.356 297.457 L 265.838 297.607 265.736 295.846 C 265.597 293.455,265.627 293.483,263.530 293.669 L 261.778 293.824 261.778 292.837 C 261.778 291.904,261.827 291.826,262.664 291.425 C 263.152 291.191,263.552 290.936,263.553 290.857 C 263.554 290.778,264.231 290.444,265.056 290.113 C 265.881 289.783,266.606 289.432,266.667 289.334 C 266.822 289.084,269.310 288.002,269.750 287.993 C 269.949 287.989,270.305 287.839,270.542 287.660 C 271.527 286.915,271.787 287.266,271.082 288.389 M259.023 295.090 L 260.778 295.038 260.889 296.797 L 261.000 298.556 262.575 298.620 L 264.150 298.685 264.353 300.509 L 264.556 302.333 266.222 302.333 L 267.889 302.333 267.954 303.454 C 268.019 304.554,267.304 305.333,266.231 305.333 C 266.122 305.333,265.218 305.833,264.222 306.444 C 262.053 307.776,262.001 307.782,261.997 306.722 C 261.990 304.882,261.924 304.823,259.977 304.936 C 257.979 305.052,258.000 305.071,258.000 303.120 C 258.000 301.453,257.771 301.262,256.017 301.460 L 254.667 301.613 254.667 300.347 C 254.667 298.454,254.470 298.222,252.865 298.222 C 251.750 298.222,251.535 298.162,251.595 297.864 C 251.687 297.407,256.939 294.610,257.129 294.917 C 257.208 295.046,258.020 295.120,259.023 295.090 M207.111 297.556 C 207.111 297.678,207.035 297.778,206.941 297.778 C 206.848 297.778,206.524 298.178,206.222 298.667 C 205.920 299.156,205.596 299.556,205.501 299.556 C 205.407 299.556,205.656 299.057,206.054 298.448 C 206.748 297.387,207.111 297.080,207.111 297.556 M250.222 301.556 L 250.222 303.111 251.662 303.111 C 253.287 303.111,253.275 303.097,253.386 305.222 L 253.444 306.333 255.278 306.310 L 257.111 306.287 257.111 307.573 C 257.111 309.174,257.391 309.945,258.008 310.039 C 258.380 310.095,258.178 310.288,257.075 310.926 C 256.300 311.375,255.317 312.048,254.889 312.423 C 254.461 312.798,252.761 314.139,251.111 315.403 L 248.111 317.700 246.500 317.603 L 244.889 317.505 244.889 318.851 L 244.889 320.197 242.577 322.099 C 240.418 323.875,240.198 324.000,239.244 324.000 L 238.222 324.000 238.222 324.788 C 238.222 325.363,238.056 325.731,237.611 326.145 C 236.444 327.230,231.358 331.111,231.103 331.111 C 230.861 331.111,229.575 331.925,229.333 332.230 C 229.272 332.307,228.547 332.739,227.722 333.189 L 226.222 334.008 226.222 333.341 C 226.222 332.532,225.634 332.318,224.008 332.534 L 222.928 332.677 222.782 330.950 C 222.571 328.457,222.692 328.592,220.774 328.715 C 219.266 328.812,219.111 328.784,219.111 328.411 C 219.111 328.051,219.300 328.000,220.622 328.000 C 222.493 328.000,222.667 327.837,222.667 326.076 L 222.667 324.686 224.278 324.621 L 225.889 324.556 225.955 323.167 L 226.021 321.778 227.411 321.778 C 229.150 321.778,229.333 321.593,229.333 319.844 L 229.333 318.444 231.067 318.444 C 233.224 318.444,233.333 318.341,233.333 316.298 L 233.333 314.685 235.056 314.620 L 236.778 314.556 236.843 312.954 L 236.908 311.352 238.510 311.287 L 240.111 311.222 240.177 309.833 L 240.243 308.444 241.650 308.444 C 243.419 308.444,243.620 308.230,243.520 306.453 L 243.444 305.110 245.148 305.111 C 247.637 305.111,247.556 305.191,247.556 302.767 C 247.556 301.352,247.467 300.636,247.278 300.513 C 247.013 300.342,248.116 300.115,249.611 300.033 L 250.222 300.000 250.222 301.556 M242.667 303.111 C 242.667 303.471,242.519 303.556,241.889 303.556 C 240.951 303.556,240.919 303.452,241.722 303.016 C 242.537 302.574,242.667 302.587,242.667 303.111 M202.667 304.114 C 202.667 304.177,202.574 304.402,202.460 304.614 C 202.347 304.826,201.388 307.675,200.330 310.944 C 198.070 317.929,197.674 318.556,198.749 313.444 C 199.653 309.151,200.366 306.667,200.694 306.667 C 200.772 306.667,200.959 306.367,201.111 306.000 C 201.263 305.633,201.463 305.333,201.556 305.333 C 201.648 305.333,201.848 305.033,202.000 304.667 C 202.234 304.102,202.667 303.743,202.667 304.114 M238.667 305.889 L 238.667 306.889 237.249 306.889 C 235.515 306.889,235.261 307.127,235.367 308.652 L 235.444 309.761 233.778 309.825 L 232.111 309.889 232.047 311.713 L 231.982 313.538 230.158 313.602 L 228.333 313.667 228.268 315.278 L 228.203 316.889 226.324 316.889 L 224.444 316.889 224.444 318.546 L 224.444 320.203 222.833 320.268 L 221.222 320.333 221.156 321.713 L 221.090 323.092 219.490 323.157 L 217.889 323.222 217.821 324.289 L 217.753 325.356 216.598 325.289 L 215.444 325.222 215.387 324.333 C 215.356 323.844,215.274 323.106,215.205 322.692 L 215.080 321.940 213.762 322.078 C 212.470 322.213,212.444 322.205,212.444 321.663 C 212.444 321.143,212.514 321.111,213.648 321.111 C 215.509 321.111,215.556 321.067,215.556 319.318 L 215.556 317.795 217.500 317.731 L 219.444 317.667 219.516 316.000 L 219.587 314.333 228.960 309.636 C 239.836 304.186,238.667 304.637,238.667 305.889 M216.416 306.482 C 217.274 306.791,218.528 306.957,220.861 307.070 L 224.111 307.228 223.222 307.658 C 222.733 307.894,222.283 308.146,222.222 308.216 C 222.161 308.286,221.461 308.684,220.667 309.100 C 219.872 309.515,218.872 310.053,218.444 310.295 C 218.017 310.537,216.817 311.183,215.778 311.731 C 214.739 312.279,213.439 312.979,212.889 313.286 C 211.786 313.901,209.878 314.927,208.000 315.913 C 207.328 316.267,206.728 316.606,206.667 316.667 C 206.606 316.728,206.257 316.928,205.892 317.111 C 205.527 317.295,204.571 317.802,203.767 318.238 C 201.757 319.329,201.493 319.421,201.751 318.939 C 202.209 318.083,207.113 313.508,208.713 312.443 C 209.657 311.815,210.640 310.959,210.902 310.535 C 211.163 310.112,211.495 309.644,211.640 309.494 C 211.785 309.345,212.145 308.872,212.441 308.444 C 212.737 308.017,213.034 307.617,213.102 307.556 C 213.169 307.494,213.509 307.063,213.857 306.596 C 214.310 305.989,214.594 305.791,214.856 305.899 C 215.057 305.983,215.760 306.245,216.416 306.482 M291.667 307.148 C 293.011 307.414,294.165 307.711,294.231 307.809 C 294.297 307.907,295.179 308.079,296.190 308.193 C 298.538 308.455,298.524 308.376,296.504 309.910 C 295.554 310.630,294.667 311.320,294.533 311.443 C 294.398 311.566,293.376 312.367,292.262 313.222 C 289.842 315.080,289.803 315.247,291.397 316.959 C 292.467 318.109,292.656 318.222,293.509 318.222 C 294.430 318.222,294.444 318.234,294.444 319.000 L 294.444 319.778 292.778 319.778 C 291.444 319.778,291.111 319.844,291.111 320.111 C 291.111 320.333,290.889 320.444,290.444 320.444 L 289.778 320.444 289.778 319.044 C 289.778 317.270,289.637 317.138,287.889 317.278 L 286.480 317.391 286.353 316.418 C 286.283 315.882,286.200 315.144,286.168 314.778 C 286.111 314.114,286.105 314.111,284.721 314.111 C 283.172 314.111,283.202 314.152,283.057 311.889 L 283.000 311.000 281.444 311.000 L 279.889 311.000 279.821 310.180 L 279.753 309.360 281.289 308.902 C 282.134 308.650,282.982 308.444,283.172 308.444 C 283.363 308.444,283.555 308.335,283.599 308.202 C 283.686 307.941,287.741 306.733,288.667 306.691 C 288.972 306.678,290.322 306.883,291.667 307.148 M275.111 312.029 C 275.111 312.205,275.562 312.235,276.634 312.130 L 278.157 311.979 278.282 313.793 C 278.434 316.011,278.495 316.077,280.302 315.962 C 281.934 315.858,281.991 315.917,281.997 317.709 C 282.001 318.844,282.235 319.013,283.682 318.923 L 284.809 318.853 285.016 320.482 L 285.222 322.111 287.278 322.050 L 289.333 321.988 289.333 322.760 C 289.333 323.522,289.321 323.532,288.278 323.599 L 287.222 323.667 287.157 325.158 L 287.091 326.650 285.157 326.714 L 283.222 326.778 283.154 327.722 C 283.044 329.246,282.692 328.806,282.621 327.056 L 282.556 325.444 281.056 325.379 L 279.556 325.313 279.556 324.017 C 279.556 322.368,279.317 322.159,277.554 322.258 C 275.999 322.345,276.040 322.402,275.946 320.000 L 275.889 318.556 273.944 318.574 L 272.000 318.593 272.000 316.852 C 272.000 315.622,271.918 315.103,271.722 315.084 C 271.569 315.068,270.919 315.078,270.278 315.104 C 268.842 315.163,268.831 315.082,270.179 314.377 C 271.274 313.804,272.025 313.387,273.778 312.374 C 274.904 311.723,275.111 311.670,275.111 312.029 M267.194 317.361 C 267.271 317.743,267.335 318.368,267.337 318.750 C 267.343 319.967,267.545 320.082,269.423 319.940 L 271.111 319.812 271.133 321.073 C 271.174 323.364,271.234 323.441,273.011 323.470 L 274.556 323.495 274.621 325.241 C 274.700 327.319,274.763 327.379,276.711 327.196 L 278.201 327.056 278.267 328.583 L 278.333 330.111 279.167 330.180 L 280.000 330.249 280.000 331.559 L 280.000 332.869 278.389 332.935 L 276.778 333.000 276.713 334.833 L 276.649 336.667 274.769 336.667 L 272.889 336.667 272.889 338.333 L 272.889 340.000 270.889 340.000 L 268.889 340.000 268.889 341.667 L 268.889 343.333 267.333 343.333 L 265.778 343.333 265.778 344.778 L 265.778 346.222 264.000 346.222 L 262.222 346.222 262.222 348.222 L 262.222 350.222 260.489 350.222 C 258.373 350.222,258.222 350.350,258.222 352.147 L 258.222 353.538 256.389 353.602 L 254.556 353.667 254.491 355.261 L 254.426 356.854 252.768 356.927 L 251.110 357.000 251.111 356.278 L 251.111 355.556 249.032 355.556 L 246.953 355.556 246.817 354.102 C 246.636 352.161,246.641 352.166,245.001 352.341 L 243.603 352.491 243.413 350.857 L 243.222 349.222 241.841 349.156 C 240.315 349.083,240.334 349.109,240.169 346.889 L 240.111 346.111 238.500 346.156 L 236.889 346.200 236.886 344.711 C 236.881 342.184,236.914 342.222,234.752 342.222 L 232.889 342.222 232.867 341.056 C 232.830 339.146,232.659 338.794,231.705 338.667 L 230.872 338.556 232.170 337.946 C 232.884 337.611,233.662 337.159,233.901 336.940 C 234.139 336.722,234.683 336.299,235.111 336.000 C 235.539 335.701,236.083 335.279,236.320 335.062 C 236.557 334.844,236.838 334.667,236.944 334.667 C 237.050 334.667,237.082 334.578,237.015 334.469 C 236.948 334.360,237.144 334.106,237.450 333.905 C 237.946 333.580,238.022 333.578,238.139 333.881 C 238.248 334.167,238.809 334.222,241.579 334.222 L 244.889 334.222 244.889 337.444 L 244.889 340.667 246.222 340.667 L 247.556 340.667 247.556 339.000 L 247.556 337.333 249.778 337.333 L 252.000 337.333 252.000 339.000 L 252.000 340.667 253.444 340.667 L 254.889 340.667 254.889 337.444 L 254.889 334.222 258.222 334.222 L 261.556 334.222 261.556 332.778 L 261.556 331.333 259.992 331.333 L 258.429 331.333 258.492 329.056 L 258.556 326.778 260.056 326.712 L 261.556 326.646 261.556 325.323 L 261.556 324.000 258.222 324.000 L 254.889 324.000 254.889 322.822 L 254.889 321.644 259.367 319.489 C 261.829 318.303,264.018 317.333,264.230 317.333 C 264.442 317.333,264.902 317.184,265.252 317.001 C 266.347 316.430,267.034 316.558,267.194 317.361 M210.667 318.889 C 210.667 319.011,210.442 319.110,210.167 319.108 C 209.762 319.105,209.730 319.063,210.000 318.889 C 210.431 318.610,210.667 318.610,210.667 318.889 M303.284 319.362 L 305.568 319.629 308.810 322.981 C 310.593 324.825,312.138 326.560,312.244 326.837 C 312.350 327.115,312.663 327.429,312.940 327.536 C 313.689 327.826,317.885 332.410,317.913 332.969 C 317.947 333.644,318.178 334.504,318.913 336.693 C 319.266 337.746,319.556 338.761,319.556 338.947 C 319.556 339.133,319.716 339.347,319.912 339.423 C 320.123 339.504,320.214 339.700,320.136 339.905 C 320.005 340.245,320.302 341.326,321.577 345.163 C 322.423 347.709,322.495 347.556,320.458 347.556 L 318.694 347.556 318.559 346.500 C 318.485 345.919,318.375 345.119,318.313 344.722 L 318.202 344.000 316.657 344.000 L 315.111 344.000 315.111 343.139 C 315.111 341.049,314.993 340.889,313.452 340.889 L 312.070 340.889 311.868 339.389 L 311.667 337.889 310.056 337.824 L 308.444 337.758 308.444 336.017 C 308.444 333.787,308.316 333.667,306.130 333.852 C 304.270 334.009,304.235 333.975,304.222 332.000 C 304.212 330.504,304.049 330.366,302.354 330.421 L 300.889 330.468 300.889 329.165 C 300.889 327.343,300.618 327.046,299.041 327.144 L 297.777 327.222 297.774 326.222 C 297.770 324.758,297.364 324.103,296.487 324.144 L 295.778 324.177 295.778 322.765 L 295.778 321.353 297.389 321.288 L 299.000 321.222 299.068 320.044 L 299.135 318.865 300.068 318.981 C 300.580 319.044,302.028 319.216,303.284 319.362 M207.333 321.389 L 207.332 322.556 205.867 322.611 C 203.963 322.684,204.000 322.645,204.000 324.559 L 204.000 326.204 202.278 326.268 L 200.556 326.333 200.490 327.833 C 200.454 328.658,200.354 329.341,200.268 329.350 C 200.182 329.360,199.411 329.411,198.556 329.465 C 196.373 329.602,196.444 329.540,196.444 331.316 L 196.444 332.869 194.944 332.934 L 193.444 333.000 193.378 334.389 L 193.312 335.778 191.812 335.778 C 189.911 335.778,189.778 335.919,189.778 337.933 L 189.778 339.556 188.000 339.556 L 186.222 339.556 186.222 341.111 L 186.222 342.667 185.278 342.707 C 184.758 342.730,184.054 342.729,183.712 342.705 C 182.484 342.620,182.222 342.965,182.222 344.664 L 182.222 346.202 180.722 346.268 L 179.222 346.333 179.156 347.722 L 179.090 349.111 177.561 349.111 C 176.498 349.111,175.930 349.213,175.698 349.444 C 174.717 350.426,174.000 349.636,174.000 347.572 C 174.000 346.440,173.688 346.222,172.067 346.222 L 170.667 346.222 170.664 345.167 C 170.658 343.201,170.584 343.111,168.974 343.111 L 167.556 343.111 167.556 342.320 C 167.556 341.850,167.646 341.585,167.778 341.667 C 167.900 341.742,168.000 341.606,168.000 341.365 C 168.000 341.123,167.875 340.880,167.722 340.823 C 167.179 340.622,167.790 340.197,172.444 337.539 C 172.750 337.365,173.050 337.157,173.111 337.077 C 173.438 336.650,183.519 332.618,183.810 332.798 C 184.022 332.929,186.015 332.091,186.222 331.783 C 186.283 331.692,186.983 331.390,187.778 331.112 C 188.612 330.821,189.811 330.147,190.615 329.519 C 191.382 328.920,192.259 328.335,192.566 328.218 C 192.872 328.102,193.245 327.902,193.395 327.775 C 193.544 327.647,194.392 327.087,195.278 326.529 C 196.164 325.971,196.889 325.424,196.889 325.313 C 196.889 325.202,197.014 325.111,197.167 325.110 C 197.319 325.110,197.894 324.805,198.444 324.434 C 199.301 323.856,201.612 322.667,201.878 322.667 C 201.926 322.667,202.998 322.183,204.261 321.591 C 206.209 320.678,206.972 320.336,207.278 320.240 C 207.308 320.230,207.333 320.747,207.333 321.389 M210.967 325.352 C 211.155 327.151,211.157 327.153,212.685 326.980 L 214.000 326.831 214.000 328.527 L 214.000 330.222 212.111 330.222 L 210.222 330.222 210.222 331.879 L 210.222 333.536 208.611 333.601 L 207.000 333.667 206.934 335.046 L 206.868 336.425 205.267 336.490 L 203.667 336.556 203.603 338.602 L 203.539 340.648 201.825 340.713 L 200.111 340.778 200.045 342.278 L 199.980 343.778 198.879 343.817 C 195.927 343.921,196.115 343.784,196.181 345.787 L 196.233 347.333 194.912 347.333 C 192.962 347.333,192.889 347.390,192.889 348.903 L 192.889 350.203 191.278 350.268 L 189.667 350.333 189.602 352.056 C 189.547 353.500,189.476 353.780,189.157 353.792 C 185.733 353.917,185.778 353.891,185.778 355.791 L 185.778 357.333 185.137 357.333 C 184.670 357.333,184.463 357.205,184.372 356.859 C 184.257 356.419,184.152 356.395,182.925 356.534 L 181.602 356.683 181.445 355.119 C 181.311 353.787,181.226 353.556,180.866 353.556 C 180.495 353.556,180.444 353.382,180.444 352.111 L 180.444 350.667 181.973 350.667 C 183.829 350.667,184.053 350.466,183.930 348.910 L 183.841 347.778 185.124 347.778 C 187.073 347.778,187.111 347.744,187.111 345.985 L 187.111 344.462 189.056 344.398 L 191.000 344.333 191.064 342.509 L 191.129 340.685 192.842 340.620 L 194.556 340.556 194.621 338.954 L 194.686 337.352 196.398 337.287 L 198.111 337.222 198.177 335.833 L 198.243 334.444 199.437 334.444 C 201.286 334.444,201.333 334.399,201.333 332.652 L 201.333 331.128 203.278 331.064 L 205.222 331.000 205.287 329.176 L 205.351 327.352 207.064 327.287 L 208.778 327.222 208.843 325.611 L 208.908 324.000 209.867 324.000 L 210.826 324.000 210.967 325.352 M251.778 325.556 L 251.778 327.111 253.444 327.111 L 255.111 327.111 255.111 329.111 L 255.111 331.111 253.444 331.111 L 251.778 331.111 251.778 332.667 L 251.778 334.222 249.889 334.222 L 248.000 334.222 248.000 332.667 L 248.000 331.111 246.436 331.111 L 244.872 331.111 244.936 329.167 L 245.000 327.222 246.500 327.157 L 248.000 327.091 248.000 326.260 C 248.000 325.463,248.058 325.399,249.389 324.727 C 251.589 323.617,251.778 323.683,251.778 325.556 M292.773 326.833 C 292.852 327.658,292.938 328.483,292.964 328.667 C 293.003 328.933,293.360 328.995,294.729 328.973 L 296.444 328.947 296.444 330.469 C 296.444 332.195,296.538 332.275,298.444 332.168 L 299.444 332.111 299.556 333.667 L 299.667 335.222 301.500 335.214 L 303.333 335.206 303.345 335.992 C 303.386 338.884,303.595 339.178,305.470 338.994 C 307.058 338.837,307.103 338.900,307.108 341.278 L 307.111 342.667 308.879 342.667 L 310.646 342.667 310.712 344.167 L 310.778 345.667 312.278 345.732 L 313.778 345.798 313.778 347.343 L 313.778 348.889 315.667 348.889 L 317.556 348.889 317.564 349.722 C 317.584 351.722,317.958 352.856,318.489 352.528 C 318.587 352.468,318.667 352.524,318.667 352.654 C 318.667 352.792,318.136 352.889,317.375 352.889 C 315.319 352.889,314.777 353.593,314.986 355.988 C 315.087 357.155,315.063 357.778,314.916 357.778 C 314.792 357.778,314.660 357.253,314.623 356.611 L 314.556 355.444 313.111 355.471 C 311.421 355.503,311.341 355.425,311.337 353.749 C 311.332 352.152,311.094 351.946,309.471 352.137 L 308.222 352.283 308.220 351.531 C 308.218 351.117,308.154 350.395,308.077 349.927 L 307.936 349.077 306.436 349.150 L 304.936 349.222 304.781 347.444 C 304.580 345.119,304.559 345.099,302.458 345.261 L 300.735 345.394 300.592 344.530 C 300.514 344.055,300.448 343.246,300.447 342.732 L 300.444 341.797 298.833 341.732 L 297.222 341.667 297.110 340.333 C 296.953 338.459,296.870 338.377,295.309 338.558 L 294.000 338.710 294.000 337.827 C 294.000 337.342,293.938 336.632,293.861 336.250 L 293.722 335.556 292.226 335.556 L 290.731 335.556 290.579 333.744 C 290.383 331.383,290.498 331.484,288.137 331.619 C 287.023 331.683,286.511 331.670,287.000 331.590 L 287.889 331.444 287.954 329.833 L 288.019 328.222 290.010 328.222 L 292.000 328.222 292.000 326.778 C 292.000 324.696,292.575 324.738,292.773 326.833 M241.679 331.092 C 241.506 331.370,240.889 331.420,240.889 331.156 C 240.889 331.058,241.009 330.858,241.156 330.711 C 241.466 330.400,241.907 330.722,241.679 331.092 M218.043 332.722 L 218.111 333.667 219.722 333.732 L 221.333 333.797 221.333 335.111 L 221.333 336.426 219.722 336.891 C 217.092 337.651,214.876 338.558,214.704 338.944 C 214.663 339.036,214.438 339.111,214.204 339.111 C 213.969 339.111,213.778 339.192,213.778 339.292 C 213.778 339.391,213.429 339.610,213.002 339.777 C 212.262 340.067,209.778 344.309,209.778 345.282 C 209.778 345.657,206.517 352.151,206.244 352.320 C 205.973 352.488,204.972 354.590,204.806 355.342 C 204.548 356.513,197.281 362.222,196.049 362.222 C 195.918 362.222,194.996 362.722,194.000 363.333 C 191.870 364.641,192.047 364.597,191.959 363.833 L 191.889 363.222 189.954 363.278 L 188.019 363.333 187.954 361.611 C 187.890 359.916,187.879 359.888,187.278 359.819 C 185.802 359.649,186.642 359.111,188.389 359.108 C 190.718 359.103,190.752 359.071,190.730 356.906 L 190.712 355.111 192.311 355.111 C 194.280 355.111,194.444 354.963,194.444 353.188 L 194.444 351.797 196.056 351.732 L 197.667 351.667 197.733 350.278 L 197.799 348.889 199.238 348.889 C 200.913 348.889,201.059 348.706,200.970 346.722 L 200.918 345.556 202.799 345.556 C 205.021 345.556,204.992 345.588,204.989 343.056 L 204.987 341.333 206.449 341.333 C 208.266 341.333,208.444 341.161,208.444 339.410 L 208.444 338.019 210.056 337.954 L 211.667 337.889 211.733 336.500 L 211.799 335.111 213.220 335.111 C 214.895 335.111,214.943 335.057,214.916 333.205 L 214.894 331.778 216.434 331.778 L 217.974 331.778 218.043 332.722 M285.643 333.685 C 285.717 333.878,285.778 334.617,285.778 335.328 C 285.778 336.625,286.023 337.004,286.722 336.790 C 286.875 336.743,287.475 336.648,288.056 336.579 L 289.111 336.453 289.114 337.615 C 289.115 338.255,289.178 339.153,289.254 339.611 L 289.391 340.444 290.994 340.444 L 292.597 340.444 292.798 341.944 L 293.000 343.444 294.329 343.444 C 295.341 343.444,295.669 343.524,295.704 343.778 C 295.730 343.961,295.814 344.686,295.891 345.389 L 296.032 346.667 297.775 346.667 L 299.518 346.667 299.674 348.337 C 299.857 350.291,299.906 350.337,301.714 350.256 C 303.281 350.186,303.209 350.091,303.414 352.494 C 303.563 354.239,303.570 354.245,305.317 354.082 L 306.830 353.942 307.026 355.471 L 307.222 357.000 308.611 356.947 L 310.000 356.894 310.000 358.099 C 310.000 359.526,310.302 360.444,310.772 360.444 C 310.959 360.444,311.111 360.594,311.111 360.778 C 311.111 361.042,310.793 361.111,309.579 361.111 C 307.837 361.111,307.778 361.170,307.778 362.897 L 307.778 363.981 306.167 364.046 L 304.556 364.111 304.491 366.056 L 304.427 368.000 303.064 368.000 C 301.230 368.000,300.889 368.319,300.889 370.034 L 300.889 371.333 299.778 371.333 C 299.167 371.333,298.667 371.433,298.667 371.556 C 298.667 371.678,298.420 371.778,298.119 371.778 C 297.410 371.778,297.111 372.359,297.111 373.736 L 297.111 374.834 295.884 374.936 C 294.526 375.048,293.732 375.632,293.882 376.408 C 294.103 377.556,293.830 377.778,292.196 377.778 C 290.468 377.778,290.589 377.597,290.616 380.136 L 290.628 381.272 288.884 381.392 C 286.660 381.544,286.667 381.539,286.667 383.223 L 286.667 384.642 284.944 384.017 C 283.997 383.673,282.867 383.242,282.432 383.059 C 281.997 382.875,280.276 382.597,278.608 382.441 L 275.574 382.157 275.509 380.690 L 275.444 379.222 273.857 379.157 C 272.063 379.084,272.009 379.023,272.003 377.066 L 272.000 376.020 270.500 375.955 L 269.000 375.889 268.934 374.389 L 268.869 372.889 267.241 372.889 L 265.613 372.889 265.512 371.153 C 265.374 368.770,265.407 368.801,263.190 368.971 L 261.333 369.114 261.333 367.473 C 261.333 365.420,261.171 365.254,259.370 365.458 L 258.039 365.609 257.895 364.304 C 257.815 363.587,257.731 362.850,257.706 362.667 C 257.674 362.420,257.308 362.316,256.295 362.268 C 255.167 362.213,254.140 361.694,254.717 361.468 C 255.527 361.152,255.670 360.889,255.733 359.598 L 255.798 358.241 257.399 358.176 L 259.000 358.111 259.066 356.620 L 259.131 355.128 261.066 355.064 L 263.000 355.000 263.064 352.944 L 263.128 350.889 264.768 350.889 C 267.113 350.889,267.111 350.890,267.111 349.097 L 267.111 347.575 268.722 347.510 L 270.333 347.444 270.399 346.065 L 270.465 344.687 271.955 344.621 L 273.444 344.556 273.510 342.944 L 273.575 341.333 275.676 341.333 L 277.778 341.333 277.778 339.565 L 277.778 337.796 279.500 337.732 L 281.222 337.667 281.287 336.065 L 281.352 334.463 283.065 334.398 C 284.649 334.338,284.783 334.296,284.849 333.833 C 284.930 333.259,285.443 333.163,285.643 333.685 M67.411 336.870 C 67.828 337.104,70.206 338.329,72.696 339.592 C 75.185 340.854,77.272 341.938,77.333 342.000 C 77.394 342.061,79.344 343.075,81.667 344.252 C 85.698 346.295,88.641 347.804,96.944 352.082 C 98.992 353.137,102.292 354.837,104.278 355.860 C 106.264 356.883,109.039 358.317,110.444 359.047 C 111.850 359.776,115.250 361.513,118.000 362.905 C 120.750 364.298,123.050 365.489,123.111 365.552 C 123.172 365.615,124.199 366.154,125.393 366.750 C 126.587 367.346,127.606 367.903,127.659 367.987 C 127.711 368.071,126.127 371.433,124.139 375.459 C 122.151 379.484,119.781 384.303,118.873 386.167 L 117.222 389.556 103.667 389.550 C 88.743 389.545,89.423 389.598,85.138 388.085 C 83.188 387.397,82.179 386.834,81.060 385.808 C 80.605 385.390,80.005 384.893,79.727 384.703 C 79.061 384.246,78.024 383.186,77.301 382.222 C 76.980 381.794,76.526 381.227,76.292 380.962 C 75.872 380.484,72.943 378.594,71.222 377.689 C 70.734 377.432,70.234 377.145,70.111 377.051 C 69.989 376.957,69.258 376.481,68.488 375.993 L 67.087 375.105 65.710 375.329 C 64.953 375.452,63.924 375.553,63.423 375.554 C 62.797 375.555,62.388 375.694,62.111 376.000 C 61.890 376.244,61.435 376.444,61.101 376.444 C 59.600 376.444,58.711 378.883,59.300 381.382 C 59.893 383.894,60.074 384.564,60.220 384.778 C 60.304 384.900,60.596 385.600,60.870 386.333 C 61.145 387.067,61.478 387.867,61.611 388.111 C 61.744 388.356,62.145 389.088,62.502 389.739 C 63.392 391.357,63.789 391.339,57.039 389.992 C 56.449 389.874,55.422 389.778,54.758 389.778 C 53.703 389.778,52.809 389.514,52.444 389.095 C 52.383 389.024,51.883 388.724,51.333 388.428 C 50.783 388.131,50.283 387.825,50.222 387.747 C 50.117 387.613,45.208 385.196,39.181 382.310 L 36.473 381.014 36.331 379.896 C 36.254 379.281,36.147 378.622,36.094 378.432 C 36.041 378.242,36.173 377.891,36.388 377.653 C 36.602 377.414,37.223 376.570,37.766 375.776 C 38.310 374.983,38.814 374.283,38.888 374.222 C 38.961 374.161,39.262 373.761,39.556 373.333 C 39.849 372.906,40.145 372.506,40.212 372.444 C 40.279 372.383,40.778 371.683,41.322 370.889 C 41.865 370.094,42.370 369.394,42.443 369.333 C 42.517 369.272,42.817 368.872,43.111 368.444 C 43.405 368.017,43.700 367.617,43.767 367.556 C 43.834 367.494,44.334 366.794,44.877 366.000 C 45.421 365.206,45.924 364.506,45.995 364.444 C 46.066 364.383,46.868 363.283,47.778 362.000 C 48.687 360.717,49.487 359.617,49.556 359.556 C 49.624 359.494,50.424 358.394,51.333 357.111 C 52.243 355.828,53.043 354.728,53.111 354.667 C 53.179 354.606,53.979 353.506,54.889 352.222 C 55.799 350.939,56.599 349.839,56.667 349.778 C 56.735 349.717,57.535 348.617,58.444 347.333 C 59.354 346.050,60.154 344.950,60.222 344.889 C 60.290 344.828,61.090 343.728,62.000 342.444 C 62.910 341.161,63.712 340.061,63.782 340.000 C 63.853 339.939,64.147 339.539,64.437 339.111 C 65.104 338.127,66.446 336.444,66.564 336.444 C 66.613 336.444,66.994 336.636,67.411 336.870 M228.000 341.681 C 228.000 343.661,228.176 343.831,230.038 343.648 C 231.924 343.462,231.992 343.529,231.997 345.596 C 232.001 347.334,232.158 347.457,234.084 347.216 L 235.275 347.067 235.471 349.034 L 235.667 351.000 237.266 350.935 L 238.865 350.870 238.986 351.601 C 239.052 352.004,239.133 352.683,239.164 353.111 L 239.222 353.889 240.556 353.889 L 241.889 353.889 242.113 355.556 L 242.337 357.222 244.335 357.222 L 246.333 357.222 246.391 358.333 C 246.486 360.134,246.608 360.444,247.226 360.444 C 247.761 360.444,247.778 360.493,247.778 361.991 L 247.778 363.537 246.056 363.602 L 244.333 363.667 244.268 365.278 L 244.203 366.889 242.324 366.889 L 240.444 366.889 240.444 368.546 L 240.444 370.203 238.833 370.268 L 237.222 370.333 237.156 371.722 L 237.090 373.111 235.434 373.111 L 233.778 373.111 233.778 374.991 L 233.778 376.872 231.833 376.936 L 229.889 377.000 229.823 378.491 L 229.758 379.982 227.934 380.047 L 226.111 380.111 226.046 381.833 C 225.996 383.164,225.908 383.556,225.657 383.556 C 225.264 383.556,225.195 379.142,225.550 376.709 C 225.670 375.891,225.813 374.122,225.870 372.778 C 225.926 371.433,226.043 369.658,226.129 368.833 C 226.332 366.897,226.115 366.924,224.802 368.996 C 223.345 371.297,223.333 371.291,223.333 368.235 L 223.333 365.556 226.667 365.556 L 230.000 365.556 230.000 364.111 L 230.000 362.667 228.444 362.667 L 226.889 362.667 226.889 360.444 L 226.889 358.222 228.444 358.222 L 230.000 358.222 230.000 356.778 L 230.000 355.333 226.667 355.333 L 223.333 355.333 223.333 352.111 L 223.333 348.889 221.889 348.889 L 220.444 348.889 220.444 350.556 L 220.444 352.222 218.778 352.222 C 216.817 352.222,216.870 352.378,217.882 349.578 C 218.306 348.404,218.857 346.744,219.105 345.889 L 219.557 344.333 221.278 343.296 C 222.225 342.725,223.133 342.225,223.296 342.185 C 223.459 342.144,224.309 341.739,225.185 341.284 C 227.552 340.054,228.000 340.117,228.000 341.681 M163.124 344.623 C 163.365 344.773,164.156 344.958,164.882 345.034 L 166.203 345.172 166.268 346.531 L 166.333 347.889 167.833 347.955 L 169.333 348.020 169.333 349.881 C 169.333 352.520,169.271 352.444,171.447 352.444 C 173.287 352.444,174.032 353.041,172.646 353.403 C 172.283 353.498,172.222 353.725,172.222 354.979 C 172.222 356.347,172.189 356.445,171.722 356.458 C 168.166 356.552,168.222 356.520,168.222 358.447 L 168.222 359.980 166.722 360.045 L 165.222 360.111 165.156 361.490 L 165.090 362.870 163.490 362.935 L 161.889 363.000 161.824 364.833 L 161.760 366.667 160.035 366.667 C 157.928 366.667,157.778 366.795,157.778 368.600 L 157.778 370.000 156.167 370.003 C 153.971 370.008,153.876 370.092,153.947 371.983 L 154.006 373.536 152.392 373.601 L 150.778 373.667 150.712 375.056 C 150.646 376.427,150.637 376.444,149.996 376.444 C 149.573 376.444,149.382 376.348,149.446 376.167 C 149.500 376.014,149.646 374.989,149.769 373.889 C 149.892 372.789,150.081 371.439,150.190 370.889 C 151.005 366.762,151.001 366.798,151.266 360.556 C 151.464 355.865,151.488 355.778,152.569 355.778 L 153.333 355.778 153.333 354.333 C 153.333 353.170,153.266 352.889,152.985 352.889 C 152.743 352.889,152.675 352.753,152.763 352.444 C 152.832 352.200,152.953 351.776,153.032 351.501 C 153.537 349.746,157.500 345.349,158.600 345.325 C 158.820 345.320,159.800 344.875,160.778 344.336 C 162.502 343.385,162.558 343.371,162.621 343.853 C 162.658 344.127,162.884 344.473,163.124 344.623 M278.222 352.111 L 278.222 355.333 274.778 355.333 L 271.333 355.333 271.333 356.778 L 271.333 358.222 273.098 358.222 C 275.217 358.222,275.144 358.128,274.966 360.644 L 274.822 362.667 273.078 362.667 L 271.333 362.667 271.333 364.111 L 271.333 365.556 274.661 365.556 L 277.988 365.556 278.050 368.833 L 278.111 372.111 279.490 372.177 L 280.870 372.243 280.935 370.510 L 281.000 368.778 283.167 368.714 L 285.333 368.651 285.333 370.436 L 285.333 372.222 286.778 372.222 L 288.222 372.222 288.222 368.889 L 288.222 365.556 291.667 365.556 L 295.111 365.556 295.111 364.111 L 295.111 362.667 293.444 362.667 L 291.778 362.667 291.778 360.444 L 291.778 358.222 293.444 358.222 L 295.111 358.222 295.111 356.778 L 295.111 355.333 291.667 355.333 L 288.222 355.333 288.222 352.111 L 288.222 348.889 286.778 348.889 L 285.333 348.889 285.333 350.556 L 285.333 352.222 283.222 352.222 L 281.111 352.222 281.111 350.556 L 281.111 348.889 279.667 348.889 L 278.222 348.889 278.222 352.111 M323.371 350.944 C 323.530 351.253,323.478 351.333,323.119 351.333 C 322.793 351.333,322.667 351.188,322.667 350.815 C 322.667 350.212,322.949 349.837,323.081 350.264 C 323.131 350.424,323.261 350.731,323.371 350.944 M321.000 355.076 C 320.801 356.140,321.214 356.363,323.118 356.222 L 324.667 356.107 324.667 357.150 C 324.667 358.530,324.974 359.283,325.575 359.372 C 325.967 359.430,326.151 359.740,326.509 360.943 L 326.954 362.441 326.144 363.662 C 325.698 364.333,325.333 364.941,325.333 365.012 C 325.333 365.465,324.571 365.778,323.470 365.778 L 322.243 365.778 322.177 364.278 L 322.111 362.778 320.528 362.713 L 318.945 362.648 318.792 360.903 C 318.647 359.230,318.664 359.134,319.209 358.589 C 319.624 358.174,319.778 357.787,319.778 357.159 C 319.778 355.741,320.684 353.107,320.937 353.790 C 321.048 354.089,321.076 354.668,321.000 355.076 M220.222 356.889 L 220.222 358.444 221.889 358.444 L 223.556 358.444 223.556 360.444 L 223.556 362.444 221.889 362.444 L 220.222 362.444 220.222 364.000 L 220.222 365.556 218.333 365.556 L 216.444 365.556 216.444 364.000 L 216.444 362.444 214.889 362.444 L 213.333 362.444 213.333 360.992 C 213.333 358.921,213.692 358.444,215.248 358.444 L 216.444 358.444 216.444 356.889 L 216.444 355.333 218.333 355.333 L 220.222 355.333 220.222 356.889 M285.111 356.889 L 285.111 358.444 286.778 358.444 L 288.444 358.444 288.444 360.444 L 288.444 362.444 286.778 362.444 L 285.111 362.444 285.111 364.000 L 285.111 365.556 283.222 365.556 L 281.333 365.556 281.333 364.000 L 281.333 362.444 279.778 362.444 L 278.222 362.444 278.222 360.444 L 278.222 358.444 279.778 358.444 L 281.333 358.444 281.333 356.889 L 281.333 355.333 283.222 355.333 L 285.111 355.333 285.111 356.889 M180.220 359.611 L 180.222 360.889 179.444 360.889 L 178.667 360.889 178.667 362.222 C 178.667 363.337,178.603 363.558,178.278 363.573 C 175.065 363.719,175.073 363.713,175.222 365.833 L 175.328 367.333 173.793 367.333 C 171.561 367.333,171.556 367.338,171.556 369.153 L 171.556 370.703 169.783 370.635 C 167.645 370.553,167.596 370.594,167.511 372.556 L 167.444 374.111 165.944 374.177 L 164.444 374.243 164.444 375.566 L 164.444 376.889 163.097 376.889 C 160.908 376.889,160.851 376.961,160.913 379.675 L 160.966 381.986 160.316 382.490 C 159.788 382.899,157.787 384.658,157.333 385.111 C 157.272 385.172,156.372 385.972,155.333 386.888 C 154.294 387.804,153.294 388.707,153.111 388.894 C 152.928 389.082,152.170 389.757,151.427 390.395 L 150.077 391.556 143.983 391.514 C 140.631 391.492,138.439 391.441,139.111 391.401 C 141.343 391.270,141.333 391.276,141.333 389.797 C 141.333 388.291,141.417 388.222,143.240 388.222 L 144.444 388.222 144.444 387.262 C 144.444 385.832,145.631 384.889,147.430 384.889 L 148.444 384.889 148.444 383.970 C 148.444 381.635,149.239 380.925,151.412 381.315 C 151.945 381.410,152.222 380.765,152.222 379.427 L 152.222 378.019 153.833 377.954 L 155.444 377.889 155.511 376.500 L 155.577 375.111 156.770 375.111 C 158.616 375.111,158.667 375.064,158.667 373.337 L 158.667 371.834 160.508 371.737 C 162.923 371.610,162.889 371.641,162.889 369.542 L 162.889 367.778 164.528 367.778 C 166.564 367.778,166.738 367.611,166.603 365.789 L 166.504 364.444 168.117 364.444 C 169.975 364.444,170.049 364.369,169.848 362.674 L 169.716 361.556 170.580 361.553 C 171.056 361.552,171.819 361.489,172.278 361.413 L 173.111 361.275 173.111 359.732 L 173.111 358.188 176.665 358.261 L 180.218 358.333 180.220 359.611 M314.000 363.098 C 314.000 363.737,314.404 363.885,315.935 363.808 L 317.315 363.738 317.380 365.591 L 317.444 367.444 319.136 367.509 L 320.827 367.573 320.970 368.953 C 321.050 369.732,321.249 370.434,321.425 370.565 C 321.689 370.761,321.672 370.882,321.318 371.343 C 321.088 371.643,320.897 372.055,320.894 372.258 C 320.890 372.572,319.274 375.281,315.758 380.872 L 315.000 382.078 314.934 380.705 L 314.868 379.333 313.434 379.333 L 312.000 379.333 312.000 382.556 L 312.000 385.778 308.556 385.778 L 305.111 385.778 305.111 387.213 L 305.111 388.649 306.944 388.713 L 308.778 388.778 308.778 389.667 L 308.778 390.556 305.127 390.617 C 301.874 390.671,301.374 390.630,300.540 390.238 C 300.026 389.996,299.342 389.733,299.022 389.652 C 298.701 389.572,298.365 389.386,298.275 389.239 C 298.185 389.092,297.561 388.763,296.889 388.508 C 296.217 388.253,294.867 387.734,293.889 387.354 C 292.911 386.975,291.974 386.665,291.807 386.665 C 291.601 386.666,291.547 386.507,291.638 386.167 C 291.711 385.892,291.773 384.992,291.775 384.167 L 291.778 382.667 293.364 382.667 C 295.336 382.667,295.554 382.448,295.389 380.631 L 295.273 379.354 296.915 379.288 L 298.556 379.222 298.621 377.863 L 298.686 376.504 300.098 376.390 C 301.966 376.240,302.000 376.207,302.000 374.542 L 302.000 373.111 303.733 373.111 C 305.927 373.111,306.000 373.034,306.000 370.733 L 306.000 368.889 307.315 368.889 C 309.299 368.889,309.333 368.858,309.333 367.097 L 309.333 365.575 310.944 365.510 L 312.556 365.444 312.622 364.056 C 312.687 362.680,312.694 362.667,313.344 362.667 C 313.845 362.667,314.000 362.768,314.000 363.098 M253.432 364.722 C 253.498 365.119,253.577 365.794,253.609 366.222 L 253.667 367.000 255.019 367.065 L 256.371 367.130 256.574 368.732 L 256.778 370.333 258.611 370.325 L 260.444 370.317 260.444 371.967 C 260.444 374.041,260.648 374.237,262.611 374.065 L 264.000 373.943 264.002 374.694 C 264.003 375.107,264.067 375.969,264.144 376.611 L 264.284 377.778 265.899 377.778 L 267.514 377.778 267.662 378.944 C 267.914 380.935,267.875 380.889,269.348 380.889 C 270.519 380.889,270.667 380.939,270.667 381.333 C 270.667 381.753,270.519 381.778,268.044 381.778 C 266.602 381.778,265.327 381.872,265.211 381.986 C 264.793 382.400,255.010 382.338,254.928 381.921 C 254.816 381.349,252.000 381.385,252.000 381.958 C 252.000 382.262,251.659 382.456,250.611 382.752 C 249.847 382.968,248.993 383.237,248.712 383.350 C 247.876 383.687,247.778 383.603,247.778 382.556 L 247.778 381.556 246.333 381.556 L 244.889 381.556 244.889 382.991 L 244.889 384.426 243.278 384.893 C 238.041 386.414,237.856 386.667,241.981 386.667 L 244.889 386.667 244.889 387.333 L 244.889 388.000 241.444 388.000 L 238.000 388.000 238.000 389.556 L 238.000 391.111 235.833 391.110 C 234.642 391.110,231.937 391.044,229.822 390.964 C 225.491 390.800,225.689 390.891,225.430 388.941 L 225.280 387.804 226.362 387.735 L 227.444 387.667 227.510 386.288 L 227.576 384.909 229.066 384.843 L 230.556 384.778 230.621 383.167 L 230.686 381.556 232.325 381.556 C 234.703 381.556,234.667 381.587,234.667 379.532 L 234.667 377.778 236.556 377.778 L 238.444 377.778 238.444 376.222 L 238.444 374.667 240.111 374.667 L 241.778 374.667 241.778 373.111 L 241.778 371.556 243.444 371.556 L 245.111 371.556 245.111 370.009 L 245.111 368.462 247.056 368.398 L 249.000 368.333 249.064 366.389 L 249.128 364.444 250.662 364.444 C 251.506 364.444,252.258 364.344,252.333 364.222 C 252.655 363.701,253.313 364.001,253.432 364.722 M187.111 365.741 L 187.111 367.037 185.722 367.771 C 182.403 369.524,179.305 371.004,177.444 371.726 C 176.956 371.915,176.406 372.175,176.222 372.302 C 175.947 372.494,175.937 372.480,176.167 372.223 C 176.339 372.030,176.444 371.250,176.444 370.178 L 176.444 368.444 178.222 368.444 L 180.000 368.444 180.000 366.889 L 180.000 365.333 181.528 365.333 C 182.611 365.333,183.137 365.237,183.331 365.002 C 183.482 364.820,183.670 364.709,183.747 364.755 C 183.859 364.820,186.150 364.620,186.944 364.475 C 187.036 364.458,187.111 365.028,187.111 365.741 M213.111 368.889 L 213.111 372.222 214.546 372.222 L 215.981 372.222 216.046 370.500 L 216.111 368.778 218.222 368.778 L 220.333 368.778 220.398 370.500 L 220.463 372.222 221.555 372.222 L 222.646 372.222 221.568 374.056 C 220.696 375.540,220.334 376.502,219.669 379.111 C 219.218 380.883,218.750 382.452,218.631 382.597 C 218.511 382.742,218.214 383.642,217.970 384.597 C 217.726 385.552,217.347 387.033,217.128 387.889 L 216.730 389.444 216.529 388.000 L 216.327 386.556 214.856 386.602 L 213.385 386.649 213.248 385.963 C 213.173 385.586,213.111 384.984,213.111 384.624 C 213.111 383.333,212.810 383.103,211.328 383.258 L 210.000 383.397 209.997 382.309 C 209.991 380.219,209.926 380.145,208.219 380.288 L 206.728 380.413 206.578 378.617 C 206.387 376.319,206.523 376.444,204.225 376.444 L 202.254 376.444 202.111 375.167 C 201.897 373.261,201.971 373.333,200.229 373.333 L 198.667 373.333 198.667 371.916 C 198.667 370.135,198.464 369.942,196.804 370.137 C 195.652 370.272,195.556 370.249,195.556 369.835 C 195.556 369.345,196.029 369.099,198.000 368.568 C 202.623 367.321,204.692 366.688,205.486 366.279 C 205.876 366.078,206.145 365.833,206.084 365.735 C 206.024 365.636,207.580 365.556,209.542 365.556 L 213.111 365.556 213.111 368.889 M192.548 372.000 L 194.222 372.000 194.222 373.306 C 194.222 374.973,194.485 375.215,196.106 375.048 L 197.315 374.923 197.379 376.517 L 197.444 378.111 199.444 378.111 C 201.743 378.111,201.738 378.107,201.762 380.056 C 201.773 380.907,201.871 381.342,202.056 381.359 C 202.208 381.373,202.943 381.365,203.689 381.340 L 205.045 381.296 205.167 383.078 C 205.328 385.427,205.307 385.403,207.103 385.223 L 208.599 385.073 208.743 386.444 C 208.930 388.233,208.919 388.222,210.458 388.222 L 211.778 388.222 211.781 389.167 C 211.785 390.228,211.924 390.519,212.532 390.744 C 213.295 391.026,212.844 391.055,205.278 391.217 L 197.778 391.377 197.778 390.355 L 197.778 389.333 194.444 389.333 L 191.111 389.333 191.111 386.000 L 191.111 382.667 189.556 382.667 L 188.000 382.667 188.000 384.333 L 188.000 386.000 185.889 386.000 L 183.778 386.000 183.778 384.333 L 183.778 382.667 182.339 382.667 L 180.901 382.667 180.839 385.944 L 180.778 389.222 177.951 389.284 L 175.123 389.347 174.451 388.418 C 174.081 387.907,173.778 387.340,173.778 387.158 C 173.778 386.976,173.417 386.520,172.977 386.144 C 172.537 385.768,171.720 384.820,171.161 384.037 L 170.146 382.615 170.684 382.198 C 170.980 381.969,171.497 381.657,171.833 381.503 C 172.169 381.350,172.444 381.149,172.444 381.057 C 172.444 380.964,172.569 380.889,172.722 380.889 C 172.875 380.889,173.438 380.489,173.973 380.000 C 174.507 379.511,175.139 379.111,175.377 379.111 C 175.614 379.111,176.245 378.811,176.778 378.444 C 177.311 378.078,177.854 377.778,177.984 377.778 C 178.115 377.778,178.222 377.678,178.222 377.556 C 178.222 377.433,178.335 377.333,178.473 377.333 C 178.612 377.333,179.212 376.983,179.807 376.556 C 180.403 376.128,180.966 375.778,181.059 375.778 C 181.152 375.778,181.748 375.428,182.383 375.000 C 183.018 374.572,183.642 374.222,183.769 374.222 C 183.896 374.222,184.000 374.067,184.000 373.877 C 184.000 373.484,186.162 372.444,186.977 372.444 C 187.442 372.444,189.351 371.796,190.222 371.342 C 190.448 371.224,190.607 371.302,190.715 371.584 C 190.851 371.940,191.118 372.000,192.548 372.000 M174.143 373.233 C 172.296 374.162,172.444 374.163,172.444 373.222 L 172.444 372.444 174.056 372.455 L 175.667 372.466 174.143 373.233 M67.186 381.000 C 67.890 381.183,68.661 381.333,68.900 381.333 C 69.138 381.333,69.333 381.433,69.333 381.556 C 69.333 381.678,69.428 381.778,69.545 381.778 C 71.019 381.778,73.430 384.800,74.247 387.672 C 74.352 388.042,74.714 388.515,75.052 388.723 C 75.390 388.931,75.917 389.311,76.222 389.568 L 76.778 390.035 74.126 389.903 C 72.667 389.831,71.092 389.673,70.626 389.552 C 70.159 389.432,69.363 389.225,68.856 389.092 C 67.552 388.751,66.312 387.867,65.977 387.039 C 65.820 386.651,65.618 386.282,65.528 386.218 C 65.233 386.012,64.444 382.701,64.444 381.671 C 64.444 380.491,64.851 380.392,67.186 381.000 M168.691 387.293 C 169.854 388.127,171.250 389.024,171.792 389.286 C 173.066 389.903,174.337 390.967,174.154 391.264 C 174.058 391.419,170.863 391.496,164.522 391.497 C 155.362 391.499,155.061 391.486,155.826 391.114 C 156.262 390.902,156.848 390.515,157.129 390.253 C 157.410 389.992,157.771 389.778,157.931 389.778 C 158.091 389.778,158.222 389.701,158.222 389.608 C 158.222 389.515,158.622 389.191,159.111 388.889 C 159.600 388.587,160.000 388.275,160.000 388.196 C 160.000 388.117,160.175 387.999,160.389 387.934 C 161.441 387.614,165.852 386.000,165.956 385.896 C 166.229 385.623,166.683 385.855,168.691 387.293 M274.733 387.255 C 274.855 387.461,275.390 387.556,276.432 387.556 C 278.095 387.556,278.225 387.658,278.219 388.963 C 278.212 390.724,278.831 390.575,270.706 390.773 C 266.712 390.870,263.044 390.961,262.556 390.975 L 261.667 391.000 261.601 389.500 L 261.535 388.000 258.212 388.000 L 254.889 388.000 254.889 387.330 L 254.889 386.660 264.722 386.807 C 272.631 386.926,274.590 387.013,274.733 387.255 M251.778 389.333 L 251.778 390.667 250.389 390.670 C 249.625 390.671,248.775 390.733,248.500 390.807 C 248.018 390.936,248.000 390.887,248.000 389.470 L 248.000 388.000 249.889 388.000 L 251.778 388.000 251.778 389.333 M187.778 390.222 L 187.778 391.111 185.889 391.111 L 184.000 391.111 184.000 390.222 L 184.000 389.333 185.889 389.333 L 187.778 389.333 187.778 390.222 M288.111 390.166 L 289.667 390.556 288.020 390.622 C 286.852 390.668,286.319 390.604,286.190 390.399 C 285.721 389.660,285.970 389.630,288.111 390.166 M240.947 391.045 C 240.674 391.098,240.174 391.099,239.836 391.048 C 239.499 390.997,239.722 390.954,240.333 390.952 C 240.944 390.951,241.221 390.993,240.947 391.045 M220.222 394.444 C 220.222 394.567,220.366 394.667,220.542 394.667 C 220.719 394.667,220.924 394.567,221.000 394.444 C 221.076 394.322,220.931 394.222,220.680 394.222 C 220.428 394.222,220.222 394.322,220.222 394.444 " stroke="none" fill="#040404" fill-rule="evenodd"></path><path id="path2" d="M308.333 322.667 C 308.935 323.278,309.478 323.778,309.539 323.778 C 309.600 323.778,309.157 323.278,308.556 322.667 C 307.954 322.056,307.411 321.556,307.350 321.556 C 307.289 321.556,307.731 322.056,308.333 322.667 M261.628 325.444 C 261.629 326.300,261.670 326.623,261.718 326.162 C 261.766 325.701,261.765 325.001,261.716 324.606 C 261.667 324.212,261.627 324.589,261.628 325.444 M259.935 331.270 L 261.536 331.352 261.616 332.732 L 261.697 334.111 261.682 332.667 L 261.667 331.222 260.000 331.205 L 258.333 331.189 259.935 331.270 M247.630 339.111 C 247.630 340.028,247.669 340.403,247.717 339.944 C 247.765 339.486,247.765 338.736,247.717 338.278 C 247.669 337.819,247.630 338.194,247.630 339.111 M245.392 340.826 C 245.730 340.877,246.230 340.876,246.503 340.823 C 246.776 340.770,246.500 340.729,245.889 340.730 C 245.278 340.732,245.054 340.775,245.392 340.826 M252.837 340.828 C 253.237 340.877,253.837 340.876,254.171 340.825 C 254.505 340.775,254.178 340.734,253.444 340.736 C 252.711 340.737,252.438 340.778,252.837 340.828 M220.370 348.815 C 220.289 348.896,220.222 349.642,220.222 350.472 L 220.222 351.981 218.722 352.060 L 217.222 352.140 218.778 352.126 L 220.333 352.111 220.398 350.510 L 220.464 348.909 221.954 348.831 L 223.444 348.754 221.981 348.710 C 221.177 348.686,220.452 348.733,220.370 348.815 M278.828 348.827 C 279.223 348.876,279.923 348.877,280.384 348.829 C 280.845 348.781,280.522 348.741,279.667 348.740 C 278.811 348.739,278.434 348.778,278.828 348.827 M286.827 348.828 L 288.210 348.909 288.282 352.066 L 288.353 355.222 288.343 352.000 L 288.333 348.778 286.889 348.763 L 285.444 348.747 286.827 348.828 M282.056 352.163 C 282.636 352.209,283.586 352.209,284.167 352.163 C 284.747 352.118,284.272 352.080,283.111 352.080 C 281.950 352.080,281.475 352.118,282.056 352.163 M230.042 356.712 L 230.000 358.203 228.389 358.279 L 226.778 358.356 228.396 358.400 C 230.269 358.451,230.283 358.437,230.165 356.531 L 230.084 355.222 230.042 356.712 M152.391 355.935 C 152.668 355.988,153.068 355.986,153.280 355.930 C 153.493 355.875,153.267 355.831,152.778 355.834 C 152.289 355.836,152.115 355.882,152.391 355.935 M292.722 358.384 C 293.181 358.432,293.931 358.432,294.389 358.384 C 294.847 358.336,294.472 358.297,293.556 358.297 C 292.639 358.297,292.264 358.336,292.722 358.384 M230.042 364.050 L 230.000 365.544 226.722 365.612 L 223.444 365.680 226.729 365.729 C 230.465 365.785,230.290 365.879,230.165 363.864 L 230.084 362.556 230.042 364.050 M208.066 365.721 C 209.019 365.763,210.519 365.762,211.399 365.720 C 212.280 365.678,211.500 365.644,209.667 365.644 C 207.833 365.645,207.113 365.679,208.066 365.721 M272.944 365.721 C 273.892 365.762,275.442 365.762,276.389 365.721 C 277.336 365.679,276.561 365.645,274.667 365.645 C 272.772 365.645,271.997 365.679,272.944 365.721 M288.320 365.844 C 288.259 366.003,288.240 367.528,288.278 369.233 L 288.347 372.333 288.396 369.061 L 288.444 365.789 291.833 365.722 L 295.222 365.654 291.826 365.605 C 289.211 365.567,288.405 365.622,288.320 365.844 M220.298 370.556 C 220.299 371.533,220.338 371.906,220.385 371.383 C 220.432 370.860,220.432 370.060,220.384 369.605 C 220.336 369.150,220.298 369.578,220.298 370.556 M311.866 382.444 C 311.866 384.217,311.901 384.942,311.943 384.056 C 311.985 383.169,311.985 381.719,311.943 380.833 C 311.901 379.947,311.866 380.672,311.866 382.444 M259.950 382.163 C 260.473 382.210,261.273 382.209,261.728 382.162 C 262.183 382.114,261.756 382.075,260.778 382.076 C 259.800 382.077,259.428 382.116,259.950 382.163 M183.854 384.333 C 183.855 385.311,183.894 385.683,183.941 385.161 C 183.988 384.638,183.987 383.838,183.939 383.383 C 183.892 382.928,183.853 383.356,183.854 384.333 M305.389 388.820 C 305.603 388.876,305.953 388.876,306.167 388.820 C 306.381 388.764,306.206 388.718,305.778 388.718 C 305.350 388.718,305.175 388.764,305.389 388.820 " stroke="none" fill="#560404" fill-rule="evenodd"></path><path id="path3" d="M278.722 295.499 C 279.669 295.540,281.219 295.540,282.167 295.499 C 283.114 295.457,282.339 295.423,280.444 295.423 C 278.550 295.423,277.775 295.457,278.722 295.499 M244.667 318.733 C 244.667 319.539,244.549 320.266,244.389 320.445 C 244.153 320.710,244.169 320.712,244.500 320.462 C 244.794 320.240,244.889 319.844,244.889 318.843 L 244.889 317.519 246.424 317.593 C 247.268 317.633,247.912 317.592,247.855 317.500 C 247.798 317.408,247.057 317.333,246.209 317.333 L 244.667 317.333 244.667 318.733 M306.333 320.667 C 306.811 321.156,307.251 321.556,307.312 321.556 C 307.374 321.556,307.033 321.156,306.556 320.667 C 306.078 320.178,305.638 319.778,305.576 319.778 C 305.515 319.778,305.856 320.178,306.333 320.667 M254.978 321.866 C 254.913 322.036,254.891 322.561,254.930 323.032 L 255.000 323.889 258.389 323.898 L 261.778 323.907 258.424 323.836 L 255.069 323.766 255.146 322.661 C 255.225 321.521,255.184 321.329,254.978 321.866 M238.500 323.937 C 238.836 323.988,239.386 323.988,239.722 323.937 C 240.058 323.886,239.783 323.844,239.111 323.844 C 238.439 323.844,238.164 323.886,238.500 323.937 M310.556 325.111 C 311.157 325.722,311.700 326.222,311.761 326.222 C 311.822 326.222,311.380 325.722,310.778 325.111 C 310.176 324.500,309.633 324.000,309.572 324.000 C 309.511 324.000,309.954 324.500,310.556 325.111 M258.526 329.000 C 258.526 330.222,258.564 330.694,258.609 330.048 C 258.654 329.402,258.653 328.402,258.607 327.826 C 258.562 327.249,258.525 327.778,258.526 329.000 M316.435 331.167 C 317.356 332.148,317.556 332.324,317.556 332.157 C 317.556 332.122,317.081 331.647,316.500 331.102 L 315.444 330.111 316.435 331.167 M254.844 337.535 C 254.808 339.357,254.853 340.801,254.944 340.744 C 255.036 340.687,255.111 339.249,255.111 337.548 L 255.111 334.456 258.389 334.388 L 261.667 334.320 258.289 334.271 L 254.911 334.222 254.844 337.535 M249.722 337.499 L 251.778 337.572 251.778 339.106 C 251.778 339.950,251.853 340.687,251.944 340.744 C 252.036 340.801,252.078 340.057,252.039 339.091 L 251.966 337.333 249.816 337.379 L 247.667 337.426 249.722 337.499 M223.435 351.889 L 223.444 355.222 226.834 355.231 L 230.223 355.240 226.895 355.170 L 223.567 355.100 223.496 351.828 L 223.425 348.556 223.435 351.889 M285.187 350.333 C 285.188 351.311,285.227 351.683,285.274 351.161 C 285.321 350.638,285.320 349.838,285.273 349.383 C 285.225 348.928,285.186 349.356,285.187 350.333 M281.186 350.444 C 281.186 351.361,281.225 351.736,281.273 351.278 C 281.321 350.819,281.321 350.069,281.273 349.611 C 281.225 349.153,281.186 349.528,281.186 350.444 M271.203 355.414 C 271.139 355.580,271.124 356.305,271.168 357.025 L 271.249 358.333 271.291 356.839 L 271.333 355.345 274.722 355.277 L 278.111 355.210 274.715 355.160 C 272.020 355.121,271.295 355.174,271.203 355.414 M290.056 355.276 C 291.003 355.318,292.553 355.318,293.500 355.276 C 294.447 355.235,293.672 355.201,291.778 355.201 C 289.883 355.201,289.108 355.235,290.056 355.276 M151.422 360.000 C 151.422 361.772,151.456 362.497,151.498 361.611 C 151.541 360.725,151.541 359.275,151.498 358.389 C 151.456 357.503,151.422 358.228,151.422 360.000 M272.944 358.381 C 273.281 358.432,273.831 358.432,274.167 358.381 C 274.503 358.330,274.228 358.289,273.556 358.289 C 272.883 358.289,272.608 358.330,272.944 358.381 M226.988 360.556 L 227.000 362.556 228.667 362.572 L 230.333 362.589 228.730 362.507 L 227.128 362.425 227.051 360.490 L 226.975 358.556 226.988 360.556 M291.876 360.556 L 291.889 362.556 293.556 362.572 L 295.222 362.589 293.619 362.507 L 292.016 362.425 291.940 360.490 L 291.864 358.556 291.876 360.556 M274.667 362.065 C 274.667 362.361,274.359 362.437,272.944 362.491 L 271.222 362.556 271.208 364.111 L 271.193 365.667 271.273 364.167 L 271.353 362.667 273.017 362.667 C 274.606 362.667,275.307 362.344,274.805 361.842 C 274.729 361.766,274.667 361.866,274.667 362.065 M212.978 369.000 C 212.978 370.833,213.012 371.554,213.054 370.601 C 213.096 369.648,213.096 368.148,213.054 367.268 C 213.012 366.387,212.977 367.167,212.978 369.000 M223.371 368.167 C 223.350 369.542,223.408 370.667,223.500 370.667 C 223.592 370.667,223.640 369.892,223.606 368.945 C 223.500 365.901,223.409 365.601,223.371 368.167 M225.924 367.262 C 226.066 367.363,226.230 367.746,226.289 368.112 C 226.387 368.722,226.393 368.714,226.365 368.017 C 226.345 367.549,226.205 367.222,226.000 367.167 C 225.775 367.106,225.750 367.137,225.924 367.262 M285.187 370.556 C 285.188 371.533,285.227 371.906,285.274 371.383 C 285.321 370.860,285.320 370.060,285.273 369.605 C 285.225 369.150,285.186 369.578,285.187 370.556 M313.278 379.271 L 314.889 379.353 314.889 380.578 C 314.889 381.252,314.967 381.756,315.063 381.696 C 315.159 381.637,315.184 381.056,315.119 380.405 L 315.000 379.222 313.333 379.205 L 311.667 379.189 313.278 379.271 M246.154 381.493 L 247.753 381.575 247.843 382.456 L 247.932 383.337 247.911 382.391 L 247.889 381.444 246.222 381.428 L 244.556 381.411 246.154 381.493 M251.843 381.722 C 251.764 381.936,251.592 382.185,251.461 382.274 C 251.304 382.381,251.325 382.439,251.521 382.441 C 251.685 382.443,251.871 382.249,251.933 382.009 C 252.030 381.638,252.281 381.563,253.635 381.498 L 255.222 381.422 253.604 381.377 C 252.241 381.340,251.963 381.395,251.843 381.722 M180.756 385.889 C 180.756 387.722,180.790 388.443,180.832 387.490 C 180.874 386.537,180.874 385.037,180.831 384.157 C 180.789 383.276,180.755 384.056,180.756 385.889 M304.962 387.222 C 304.963 388.078,305.003 388.401,305.051 387.939 C 305.099 387.478,305.098 386.778,305.049 386.384 C 305.000 385.989,304.961 386.367,304.962 387.222 M240.509 386.832 C 241.339 386.875,242.639 386.874,243.398 386.831 C 244.157 386.788,243.478 386.753,241.889 386.753 C 240.300 386.753,239.679 386.789,240.509 386.832 M256.722 386.832 C 257.669 386.874,259.219 386.874,260.167 386.832 C 261.114 386.790,260.339 386.756,258.444 386.756 C 256.550 386.756,255.775 386.790,256.722 386.832 M256.722 387.943 C 257.669 387.985,259.219 387.985,260.167 387.943 C 261.114 387.901,260.339 387.867,258.444 387.867 C 256.550 387.867,255.775 387.901,256.722 387.943 M237.820 389.380 L 237.778 390.871 235.944 390.946 L 234.111 391.021 235.951 391.066 C 238.073 391.118,238.063 391.128,237.943 389.197 L 237.862 387.889 237.820 389.380 M197.844 390.222 C 197.844 390.894,197.886 391.169,197.937 390.833 C 197.988 390.497,197.988 389.947,197.937 389.611 C 197.886 389.275,197.844 389.550,197.844 390.222 M306.615 390.605 C 307.015 390.655,307.615 390.654,307.948 390.603 C 308.282 390.553,307.956 390.512,307.222 390.513 C 306.489 390.515,306.216 390.556,306.615 390.605 M264.509 390.832 C 265.339 390.875,266.639 390.874,267.398 390.831 C 268.157 390.788,267.478 390.753,265.889 390.753 C 264.300 390.753,263.679 390.789,264.509 390.832 M168.944 391.499 C 169.892 391.540,171.442 391.540,172.389 391.499 C 173.336 391.457,172.561 391.423,170.667 391.423 C 168.772 391.423,167.997 391.457,168.944 391.499 " stroke="none" fill="#a20404" fill-rule="evenodd"></path><path id="path4" d="M283.844 296.667 C 283.844 297.339,283.886 297.614,283.937 297.278 C 283.988 296.942,283.988 296.392,283.937 296.056 C 283.886 295.719,283.844 295.994,283.844 296.667 M238.056 324.778 C 238.059 325.267,238.104 325.441,238.157 325.164 C 238.210 324.888,238.208 324.488,238.153 324.275 C 238.097 324.063,238.054 324.289,238.056 324.778 M259.273 326.827 C 259.667 326.876,260.367 326.877,260.828 326.829 C 261.289 326.781,260.967 326.741,260.111 326.740 C 259.256 326.739,258.878 326.778,259.273 326.827 M314.778 329.333 C 315.255 329.822,315.696 330.222,315.757 330.222 C 315.818 330.222,315.477 329.822,315.000 329.333 C 314.523 328.844,314.082 328.444,314.021 328.444 C 313.960 328.444,314.300 328.844,314.778 329.333 M244.756 337.444 C 244.756 339.278,244.790 339.998,244.832 339.045 C 244.874 338.093,244.874 336.593,244.831 335.712 C 244.789 334.832,244.755 335.611,244.756 337.444 M278.089 352.111 C 278.089 353.944,278.124 354.665,278.165 353.712 C 278.207 352.759,278.207 351.259,278.165 350.379 C 278.123 349.498,278.089 350.278,278.089 352.111 M153.406 354.333 C 153.407 355.189,153.447 355.512,153.496 355.051 C 153.544 354.590,153.543 353.890,153.494 353.495 C 153.445 353.101,153.405 353.478,153.406 354.333 M274.945 359.222 C 274.947 359.711,274.993 359.885,275.046 359.609 C 275.099 359.332,275.097 358.932,275.042 358.720 C 274.986 358.507,274.942 358.733,274.945 359.222 M216.093 368.968 C 216.029 369.134,216.013 369.909,216.057 370.690 L 216.137 372.111 216.179 370.508 L 216.222 368.906 218.278 368.832 L 220.333 368.759 218.271 368.713 C 216.707 368.678,216.180 368.740,216.093 368.968 M280.982 368.966 C 280.919 369.131,280.902 369.956,280.946 370.800 L 281.024 372.333 281.068 370.619 L 281.111 368.905 283.278 368.832 L 285.444 368.760 283.271 368.713 C 281.618 368.678,281.070 368.739,280.982 368.966 M244.740 383.000 C 244.741 383.856,244.781 384.178,244.829 383.717 C 244.877 383.256,244.876 382.556,244.827 382.162 C 244.778 381.767,244.739 382.144,244.740 383.000 M263.056 382.161 C 263.453 382.210,264.103 382.210,264.500 382.161 C 264.897 382.111,264.572 382.071,263.778 382.071 C 262.983 382.071,262.658 382.111,263.056 382.161 M244.718 387.333 C 244.718 387.761,244.764 387.936,244.820 387.722 C 244.876 387.508,244.876 387.158,244.820 386.944 C 244.764 386.731,244.718 386.906,244.718 387.333 M261.651 389.556 L 261.667 391.000 262.333 391.021 C 262.942 391.040,262.947 391.034,262.399 390.952 C 261.830 390.867,261.793 390.787,261.717 389.487 L 261.636 388.111 261.651 389.556 M308.723 389.667 C 308.725 390.156,308.771 390.329,308.824 390.053 C 308.877 389.777,308.875 389.377,308.819 389.164 C 308.764 388.952,308.720 389.178,308.723 389.667 M176.509 389.276 C 177.339 389.319,178.639 389.319,179.398 389.275 C 180.157 389.232,179.478 389.197,177.889 389.197 C 176.300 389.198,175.679 389.233,176.509 389.276 M192.722 389.276 C 193.669 389.318,195.219 389.318,196.167 389.276 C 197.114 389.235,196.339 389.201,194.444 389.201 C 192.550 389.201,191.775 389.235,192.722 389.276 M239.836 391.048 C 240.174 391.099,240.674 391.098,240.947 391.045 C 241.221 390.993,240.944 390.951,240.333 390.952 C 239.722 390.954,239.499 390.997,239.836 391.048 M164.391 393.935 C 164.668 393.988,165.068 393.986,165.280 393.930 C 165.493 393.875,165.267 393.831,164.778 393.834 C 164.289 393.836,164.115 393.882,164.391 393.935 " stroke="none" fill="#320404" fill-rule="evenodd"></path></g></svg>